LibreBaskerville-Regular.ufo
<glyph name="exclam" format="1">
  <advance width="308"/>
  <unicode hex="0021"/>
  <outline>
    <contour>
      <point x="89" y="55" type="curve" smooth="yes"/>
      <point x="89" y="19"/>
      <point x="118" y="-10"/>
      <point x="154" y="-10" type="curve" smooth="yes"/>
      <point x="191" y="-10"/>
      <point x="220" y="19"/>
      <point x="220" y="55" type="curve" smooth="yes"/>
      <point x="220" y="92"/>
      <point x="191" y="121"/>
      <point x="154" y="121" type="curve" smooth="yes"/>
      <point x="118" y="121"/>
      <point x="89" y="92"/>
    </contour>
    <contour>
      <point x="178" y="207" type="line"/>
      <point x="178" y="420"/>
      <point x="188" y="492"/>
      <point x="204" y="580" type="curve" smooth="yes"/>
      <point x="219" y="660"/>
      <point x="219" y="677"/>
      <point x="219" y="714" type="curve" smooth="yes"/>
      <point x="219" y="750"/>
      <point x="194" y="780"/>
      <point x="154" y="780" type="curve" smooth="yes"/>
      <point x="114" y="780"/>
      <point x="89" y="750"/>
      <point x="89" y="714" type="curve" smooth="yes"/>
      <point x="89" y="674"/>
      <point x="90" y="660"/>
      <point x="104" y="584" type="curve" smooth="yes"/>
      <point x="121" y="492"/>
      <point x="130" y="421"/>
      <point x="130" y="207" type="curve"/>
    </contour>
  </outline>
</glyph>
<glyph name="quotedbl" format="1">
  <advance width="367"/>
  <unicode hex="0022"/>
  <outline>
    <contour>
      <point x="122" y="564" type="line"/>
      <point x="132" y="640"/>
      <point x="154" y="747"/>
      <point x="154" y="780" type="curve" smooth="yes"/>
      <point x="154" y="809"/>
      <point x="134" y="830"/>
      <point x="107" y="830" type="curve" smooth="yes"/>
      <point x="80" y="830"/>
      <point x="60" y="809"/>
      <point x="60" y="781" type="curve" smooth="yes"/>
      <point x="60" y="749"/>
      <point x="83" y="640"/>
      <point x="93" y="564" type="curve"/>
    </contour>
    <contour>
      <point x="274" y="564" type="line"/>
      <point x="284" y="640"/>
      <point x="306" y="747"/>
      <point x="306" y="780" type="curve" smooth="yes"/>
      <point x="306" y="809"/>
      <point x="286" y="830"/>
      <point x="259" y="830" type="curve" smooth="yes"/>
      <point x="232" y="830"/>
      <point x="212" y="809"/>
      <point x="212" y="781" type="curve" smooth="yes"/>
      <point x="212" y="749"/>
      <point x="235" y="640"/>
      <point x="245" y="564" type="curve"/>
    </contour>
  </outline>
</glyph>
<glyph name="zero" format="1">
  <advance width="714"/>
  <unicode hex="0030"/>
  <outline>
    <contour>
      <point x="357" y="780" type="curve" smooth="yes"/>
      <point x="194" y="780"/>
      <point x="61" y="605"/>
      <point x="61" y="379" type="curve" smooth="yes"/>
      <point x="61" y="162"/>
      <point x="194" y="-10"/>
      <point x="357" y="-10" type="curve" smooth="yes"/>
      <point x="520" y="-10"/>
      <point x="653" y="162"/>
      <point x="653" y="379" type="curve" smooth="yes"/>
      <point x="653" y="605"/>
      <point x="520" y="780"/>
    </contour>
    <contour>
      <point x="357" y="38" type="curve" smooth="yes"/>
      <point x="253" y="38"/>
      <point x="191" y="116"/>
      <point x="191" y="376" type="curve" smooth="yes"/>
      <point x="191" y="647"/>
      <point x="253" y="732"/>
      <point x="357" y="732" type="curve" smooth="yes"/>
      <point x="461" y="732"/>
      <point x="523" y="647"/>
      <point x="523" y="376" type="curve" smooth="yes"/>
      <point x="523" y="116"/>
      <point x="460" y="38"/>
    </contour>
  </outline>
</glyph>
<glyph name="one" format="1">
  <advance width="446"/>
  <unicode hex="0031"/>
  <outline>
    <contour>
      <point x="276" y="780" type="line"/>
      <point x="211" y="757"/>
      <point x="134" y="741"/>
      <point x="69" y="738" type="curve"/>
      <point x="69" y="700" type="line"/>
      <point x="135" y="700"/>
      <point x="167" y="697"/>
      <point x="174" y="668" type="curve" smooth="yes"/>
      <point x="178" y="652"/>
      <point x="178" y="599"/>
      <point x="178" y="522" type="curve" smooth="yes"/>
      <point x="178" y="155" type="line" smooth="yes"/>
      <point x="178" y="61"/>
      <point x="163" y="42"/>
      <point x="74" y="38" type="curve"/>
      <point x="74" y="0" type="line"/>
      <point x="380" y="0" type="line"/>
      <point x="380" y="38" type="line"/>
      <point x="290" y="41"/>
      <point x="276" y="59"/>
      <point x="276" y="162" type="curve" smooth="yes"/>
    </contour>
  </outline>
</glyph>
<glyph name="seven" format="1">
  <advance width="502"/>
  <unicode hex="0037"/>
  <outline>
    <contour>
      <point x="281" y="410" type="line" smooth="yes"/>
      <point x="116" y="92"/>
      <point x="106" y="65"/>
      <point x="106" y="31" type="curve" smooth="yes"/>
      <point x="106" y="12"/>
      <point x="125" y="-10"/>
      <point x="149" y="-10" type="curve" smooth="yes"/>
      <point x="183" y="-10"/>
      <point x="208" y="17"/>
      <point x="253" y="136" type="curve" smooth="yes"/>
      <point x="346" y="382"/>
      <point x="374" y="451"/>
      <point x="507" y="750" type="curve"/>
      <point x="507" y="770" type="line"/>
      <point x="214" y="770" type="line" smooth="yes"/>
      <point x="153" y="770"/>
      <point x="138" y="776"/>
      <point x="138" y="799" type="curve" smooth="yes"/>
      <point x="138" y="808"/>
      <point x="140" y="824"/>
      <point x="142" y="830" type="curve"/>
      <point x="102" y="830" type="line"/>
      <point x="32" y="550" type="line"/>
      <point x="70" y="550" type="line"/>
      <point x="85" y="589" type="line" smooth="yes"/>
      <point x="113" y="663"/>
      <point x="127" y="671"/>
      <point x="231" y="671" type="curve" smooth="yes"/>
      <point x="417" y="671" type="line"/>
    </contour>
  </outline>
</glyph>
<glyph name="eight" format="1">
  <advance width="606"/>
  <unicode hex="0038"/>
  <outline>
    <contour>
      <point x="329" y="331" type="line" smooth="yes"/>
      <point x="422" y="277"/>
      <point x="454" y="239"/>
      <point x="454" y="179" type="curve" smooth="yes"/>
      <point x="454" y="92"/>
      <point x="395" y="36"/>
      <point x="304" y="36" type="curve" smooth="yes"/>
      <point x="212" y="36"/>
      <point x="154" y="93"/>
      <point x="154" y="183" type="curve" smooth="yes"/>
      <point x="154" y="259"/>
      <point x="194" y="323"/>
      <point x="269" y="365" type="curve"/>
    </contour>
    <contour>
      <point x="385" y="433" type="curve"/>
      <point x="476" y="477"/>
      <point x="516" y="536"/>
      <point x="516" y="603" type="curve" smooth="yes"/>
      <point x="516" y="656"/>
      <point x="489" y="704"/>
      <point x="440" y="738" type="curve" smooth="yes"/>
      <point x="400" y="765"/>
      <point x="351" y="780"/>
      <point x="300" y="780" type="curve" smooth="yes"/>
      <point x="240" y="780"/>
      <point x="190" y="761"/>
      <point x="150" y="724" type="curve" smooth="yes"/>
      <point x="109" y="685"/>
      <point x="86" y="634"/>
      <point x="86" y="580" type="curve" smooth="yes"/>
      <point x="86" y="500"/>
      <point x="132" y="437"/>
      <point x="227" y="386" type="curve"/>
      <point x="115" y="332"/>
      <point x="59" y="263"/>
      <point x="59" y="180" type="curve" smooth="yes"/>
      <point x="59" y="73"/>
      <point x="164" y="-10"/>
      <point x="300" y="-10" type="curve" smooth="yes"/>
      <point x="439" y="-10"/>
      <point x="545" y="86"/>
      <point x="545" y="212" type="curve" smooth="yes"/>
      <point x="545" y="303"/>
      <point x="491" y="377"/>
    </contour>
    <contour>
      <point x="296" y="479" type="line" smooth="yes"/>
      <point x="208" y="526"/>
      <point x="172" y="566"/>
      <point x="172" y="619" type="curve" smooth="yes"/>
      <point x="172" y="688"/>
      <point x="221" y="735"/>
      <point x="295" y="735" type="curve" smooth="yes"/>
      <point x="374" y="735"/>
      <point x="433" y="676"/>
      <point x="433" y="598" type="curve" smooth="yes"/>
      <point x="433" y="544"/>
      <point x="400" y="492"/>
      <point x="343" y="454" type="curve"/>
    </contour>
  </outline>
</glyph>
<glyph name="colon" format="1">
  <advance width="285"/>
  <unicode hex="003A"/>
  <outline>
    <contour>
      <point x="77" y="55" type="curve" smooth="yes"/>
      <point x="77" y="19"/>
      <point x="106" y="-10"/>
      <point x="142" y="-10" type="curve" smooth="yes"/>
      <point x="179" y="-10"/>
      <point x="208" y="19"/>
      <point x="208" y="55" type="curve" smooth="yes"/>
      <point x="208" y="92"/>
      <point x="179" y="121"/>
      <point x="142" y="121" type="curve" smooth="yes"/>
      <point x="106" y="121"/>
      <point x="77" y="92"/>
    </contour>
    <contour>
      <point x="77" y="381" type="curve" smooth="yes"/>
      <point x="77" y="345"/>
      <point x="106" y="316"/>
      <point x="142" y="316" type="curve" smooth="yes"/>
      <point x="179" y="316"/>
      <point x="208" y="345"/>
      <point x="208" y="381" type="curve" smooth="yes"/>
      <point x="208" y="418"/>
      <point x="179" y="447"/>
      <point x="142" y="447" type="curve" smooth="yes"/>
      <point x="106" y="447"/>
      <point x="77" y="418"/>
    </contour>
  </outline>
</glyph>
<glyph name="equal" format="1">
  <advance width="620"/>
  <unicode hex="003D"/>
  <outline>
    <contour>
      <point x="537" y="472" type="line"/>
      <point x="83" y="472" type="line"/>
      <point x="83" y="422" type="line"/>
      <point x="537" y="422" type="line"/>
    </contour>
    <contour>
      <point x="537" y="302" type="line"/>
      <point x="83" y="302" type="line"/>
      <point x="83" y="252" type="line"/>
      <point x="537" y="252" type="line"/>
    </contour>
  </outline>
</glyph>
<glyph name="H" format="1">
  <advance width="925"/>
  <unicode hex="0048"/>
  <outline>
    <contour>
      <point x="464" y="830" type="move" name="topcap"/>
    </contour>
    <contour>
      <point x="464" y="0" type="move" name="bottom"/>
    </contour>
    <contour>
      <point x="770" y="159" type="line" smooth="yes"/>
      <point x="770" y="57"/>
      <point x="785" y="41"/>
      <point x="879" y="38" type="curve"/>
      <point x="879" y="0" type="line"/>
      <point x="555" y="0" type="line"/>
      <point x="555" y="38" type="line"/>
      <point x="649" y="41"/>
      <point x="665" y="58"/>
      <point x="665" y="152" type="curve" smooth="yes"/>
      <point x="665" y="369" type="line"/>
      <point x="260" y="369" type="line"/>
      <point x="260" y="159" type="line" smooth="yes"/>
      <point x="260" y="57"/>
      <point x="275" y="41"/>
      <point x="369" y="38" type="curve"/>
      <point x="369" y="0" type="line"/>
      <point x="45" y="0" type="line"/>
      <point x="45" y="38" type="line"/>
      <point x="139" y="41"/>
      <point x="155" y="58"/>
      <point x="155" y="152" type="curve" smooth="yes"/>
      <point x="155" y="618" type="line" smooth="yes"/>
      <point x="155" y="711"/>
      <point x="141" y="728"/>
      <point x="55" y="732" type="curve"/>
      <point x="55" y="770" type="line"/>
      <point x="359" y="770" type="line"/>
      <point x="359" y="732" type="line"/>
      <point x="273" y="729"/>
      <point x="260" y="712"/>
      <point x="260" y="611" type="curve" smooth="yes"/>
      <point x="260" y="419" type="line"/>
      <point x="665" y="419" type="line"/>
      <point x="665" y="618" type="line" smooth="yes"/>
      <point x="665" y="711"/>
      <point x="651" y="728"/>
      <point x="565" y="732" type="curve"/>
      <point x="565" y="770" type="line"/>
      <point x="869" y="770" type="line"/>
      <point x="869" y="732" type="line"/>
      <point x="783" y="729"/>
      <point x="770" y="712"/>
      <point x="770" y="611" type="curve" smooth="yes"/>
    </contour>
  </outline>
</glyph>
<glyph name="I" format="1">
  <advance width="415"/>
  <unicode hex="0049"/>
  <outline>
    <contour>
      <point x="206" y="830" type="move" name="topcap"/>
    </contour>
    <contour>
      <point x="206" y="0" type="move" name="bottom"/>
    </contour>
    <contour>
      <point x="260" y="581" type="line"/>
      <point x="260" y="702"/>
      <point x="273" y="729"/>
      <point x="359" y="732" type="curve"/>
      <point x="359" y="770" type="line"/>
      <point x="55" y="770" type="line"/>
      <point x="55" y="732" type="line"/>
      <point x="141" y="728"/>
      <point x="155" y="701"/>
      <point x="155" y="588" type="curve" smooth="yes"/>
      <point x="155" y="182" type="line" smooth="yes"/>
      <point x="155" y="58"/>
      <point x="139" y="41"/>
      <point x="45" y="38" type="curve"/>
      <point x="45" y="0" type="line"/>
      <point x="369" y="0" type="line"/>
      <point x="369" y="38" type="line"/>
      <point x="275" y="41"/>
      <point x="260" y="57"/>
      <point x="260" y="189" type="curve" smooth="yes"/>
    </contour>
  </outline>
</glyph>
<glyph name="K" format="1">
  <advance width="779"/>
  <unicode hex="004B"/>
  <outline>
    <contour>
      <point x="412" y="0" type="move" name="bottom"/>
    </contour>
    <contour>
      <point x="260" y="159" type="line" smooth="yes"/>
      <point x="260" y="57"/>
      <point x="277" y="38"/>
      <point x="369" y="38" type="curve"/>
      <point x="369" y="0" type="line"/>
      <point x="45" y="0" type="line"/>
      <point x="45" y="38" type="line"/>
      <point x="138" y="38"/>
      <point x="155" y="58"/>
      <point x="155" y="152" type="curve" smooth="yes"/>
      <point x="155" y="618" type="line" smooth="yes"/>
      <point x="155" y="720"/>
      <point x="134" y="732"/>
      <point x="55" y="732" type="curve"/>
      <point x="55" y="770" type="line"/>
      <point x="359" y="770" type="line"/>
      <point x="359" y="732" type="line"/>
      <point x="279" y="732"/>
      <point x="260" y="717"/>
      <point x="260" y="611" type="curve" smooth="yes"/>
      <point x="260" y="364" type="line"/>
      <point x="510" y="665" type="line" smooth="yes"/>
      <point x="523" y="681"/>
      <point x="530" y="694"/>
      <point x="530" y="704" type="curve" smooth="yes"/>
      <point x="530" y="722"/>
      <point x="511" y="732"/>
      <point x="473" y="732" type="curve"/>
      <point x="473" y="770" type="line"/>
      <point x="714" y="770" type="line"/>
      <point x="714" y="733" type="line"/>
      <point x="661" y="733"/>
      <point x="638" y="723"/>
      <point x="582" y="658" type="curve" smooth="yes"/>
      <point x="394" y="441" type="line"/>
      <point x="686" y="90" type="line" smooth="yes"/>
      <point x="719" y="51"/>
      <point x="743" y="38"/>
      <point x="792" y="38" type="curve"/>
      <point x="792" y="0" type="line"/>
      <point x="485" y="0" type="line"/>
      <point x="485" y="38" type="line"/>
      <point x="537" y="38"/>
      <point x="558" y="46"/>
      <point x="558" y="65" type="curve" smooth="yes"/>
      <point x="558" y="76"/>
      <point x="548" y="96"/>
      <point x="524" y="125" type="curve" smooth="yes"/>
      <point x="329" y="365" type="line"/>
      <point x="260" y="285" type="line"/>
    </contour>
  </outline>
</glyph>
<glyph name="L" format="1">
  <advance width="727"/>
  <unicode hex="004C"/>
  <outline>
    <contour>
      <point x="206" y="830" type="move" name="topcap"/>
    </contour>
    <contour>
      <point x="381" y="0" type="move" name="bottom"/>
    </contour>
    <contour>
      <point x="691" y="0" type="line"/>
      <point x="45" y="0" type="line"/>
      <point x="45" y="38" type="line"/>
      <point x="139" y="41"/>
      <point x="155" y="58"/>
      <point x="155" y="152" type="curve" smooth="yes"/>
      <point x="155" y="618" type="line" smooth="yes"/>
      <point x="155" y="711"/>
      <point x="141" y="728"/>
      <point x="55" y="732" type="curve"/>
      <point x="55" y="770" type="line"/>
      <point x="359" y="770" type="line"/>
      <point x="359" y="732" type="line"/>
      <point x="273" y="729"/>
      <point x="260" y="712"/>
      <point x="260" y="611" type="curve" smooth="yes"/>
      <point x="260" y="180" type="line" smooth="yes"/>
      <point x="260" y="68"/>
      <point x="300" y="45"/>
      <point x="438" y="45" type="curve" smooth="yes"/>
      <point x="591" y="45"/>
      <point x="639" y="73"/>
      <point x="668" y="197" type="curve"/>
      <point x="706" y="197" type="line"/>
    </contour>
  </outline>
</glyph>
<glyph name="U" format="1">
  <advance width="861"/>
  <unicode hex="0055"/>
  <outline>
    <contour>
      <point x="459" y="830" type="move" name="topcap"/>
    </contour>
    <contour>
      <point x="452" y="0" type="move" name="bottom"/>
    </contour>
    <contour>
      <point x="722" y="512" type="line" smooth="yes"/>
      <point x="722" y="622"/>
      <point x="727" y="677"/>
      <point x="747" y="705" type="curve" smooth="yes"/>
      <point x="763" y="728"/>
      <point x="790" y="732"/>
      <point x="832" y="732" type="curve"/>
      <point x="832" y="770" type="line"/>
      <point x="542" y="770" type="line"/>
      <point x="542" y="732" type="line"/>
      <point x="583" y="732"/>
      <point x="611" y="729"/>
      <point x="629" y="712" type="curve" smooth="yes"/>
      <point x="655" y="687"/>
      <point x="662" y="631"/>
      <point x="662" y="512" type="curve" smooth="yes"/>
      <point x="662" y="271" type="line" smooth="yes"/>
      <point x="662" y="128"/>
      <point x="595" y="52"/>
      <point x="462" y="52" type="curve" smooth="yes"/>
      <point x="313" y="52"/>
      <point x="260" y="129"/>
      <point x="260" y="265" type="curve" smooth="yes"/>
      <point x="260" y="537" type="line" smooth="yes"/>
      <point x="260" y="635"/>
      <point x="264" y="684"/>
      <point x="282" y="708" type="curve" smooth="yes"/>
      <point x="298" y="729"/>
      <point x="325" y="732"/>
      <point x="370" y="732" type="curve"/>
      <point x="370" y="770" type="line"/>
      <point x="29" y="770" type="line"/>
      <point x="29" y="732" type="line"/>
      <point x="74" y="732"/>
      <point x="100" y="727"/>
      <point x="116" y="710" type="curve" smooth="yes"/>
      <point x="139" y="685"/>
      <point x="140" y="636"/>
      <point x="140" y="537" type="curve" smooth="yes"/>
      <point x="140" y="273" type="line" smooth="yes"/>
      <point x="140" y="63"/>
      <point x="237" y="-10"/>
      <point x="434" y="-10" type="curve" smooth="yes"/>
      <point x="643" y="-10"/>
      <point x="722" y="99"/>
      <point x="722" y="310" type="curve" smooth="yes"/>
    </contour>
  </outline>
</glyph>
<glyph name="backslash" format="1">
  <advance width="460"/>
  <unicode hex="005C"/>
  <outline>
    <contour>
      <point x="373" y="0" type="line"/>
      <point x="431" y="0" type="line"/>
      <point x="78" y="770" type="line"/>
      <point x="29" y="770" type="line"/>
    </contour>
  </outline>
</glyph>
<glyph name="underscore" format="1">
  <advance width="722"/>
  <unicode hex="005F"/>
  <outline>
    <contour>
      <point x="646" y="-143" type="line"/>
      <point x="646" y="-75" type="line"/>
      <point x="76" y="-75" type="line"/>
      <point x="76" y="-143" type="line"/>
    </contour>
  </outline>
</glyph>
<glyph name="grave" format="1">
  <advance width="275"/>
  <unicode hex="0060"/>
  <outline>
    <contour>
      <point x="155" y="651" type="move" name="_top"/>
    </contour>
    <contour>
      <point x="255" y="651" type="line"/>
      <point x="125" y="770" type="line" smooth="yes"/>
      <point x="100" y="793"/>
      <point x="79" y="803"/>
      <point x="58" y="803" type="curve" smooth="yes"/>
      <point x="35" y="803"/>
      <point x="20" y="790"/>
      <point x="20" y="768" type="curve" smooth="yes"/>
      <point x="20" y="747"/>
      <point x="39" y="731"/>
      <point x="71" y="716" type="curve" smooth="yes"/>
      <point x="208" y="651" type="line"/>
    </contour>
  </outline>
</glyph>
<glyph name="d" format="1">
  <advance width="675"/>
  <unicode hex="0064"/>
  <outline>
    <contour>
      <point x="308" y="0" type="move" name="bottom"/>
    </contour>
    <contour>
      <point x="484" y="-10" type="line"/>
      <point x="650" y="1" type="line"/>
      <point x="650" y="35" type="line"/>
      <point x="588" y="35"/>
      <point x="577" y="44"/>
      <point x="569" y="76" type="curve" smooth="yes"/>
      <point x="563" y="101"/>
      <point x="562" y="161"/>
      <point x="562" y="253" type="curve" smooth="yes"/>
      <point x="562" y="830" type="line"/>
      <point x="357" y="792" type="line"/>
      <point x="357" y="762" type="line"/>
      <point x="426" y="762"/>
      <point x="453" y="751"/>
      <point x="460" y="722" type="curve" smooth="yes"/>
      <point x="464" y="704"/>
      <point x="466" y="650"/>
      <point x="466" y="575" type="curve" smooth="yes"/>
      <point x="466" y="473" type="line"/>
      <point x="420" y="519"/>
      <point x="371" y="540"/>
      <point x="308" y="540" type="curve" smooth="yes"/>
      <point x="158" y="540"/>
      <point x="48" y="424"/>
      <point x="48" y="266" type="curve" smooth="yes"/>
      <point x="48" y="105"/>
      <point x="157" y="-10"/>
      <point x="308" y="-10" type="curve" smooth="yes"/>
      <point x="381" y="-10"/>
      <point x="432" y="17"/>
      <point x="480" y="84" type="curve"/>
      <point x="484" y="84" type="line"/>
    </contour>
    <contour>
      <point x="464" y="239" type="line" smooth="yes"/>
      <point x="464" y="167"/>
      <point x="457" y="130"/>
      <point x="438" y="101" type="curve" smooth="yes"/>
      <point x="412" y="61"/>
      <point x="355" y="38"/>
      <point x="308" y="38" type="curve" smooth="yes"/>
      <point x="212" y="38"/>
      <point x="161" y="130"/>
      <point x="161" y="271" type="curve" smooth="yes"/>
      <point x="161" y="406"/>
      <point x="213" y="492"/>
      <point x="308" y="492" type="curve" smooth="yes"/>
      <point x="354" y="492"/>
      <point x="407" y="471"/>
      <point x="437" y="431" type="curve" smooth="yes"/>
      <point x="458" y="404"/>
      <point x="464" y="375"/>
      <point x="464" y="305" type="curve" smooth="yes"/>
    </contour>
  </outline>
</glyph>
<glyph name="e" format="1">
  <advance width="573"/>
  <unicode hex="0065"/>
  <outline>
    <contour>
      <point x="313" y="651" type="move" name="top"/>
    </contour>
    <contour>
      <point x="312" y="0" type="move" name="bottom"/>
    </contour>
    <contour>
      <point x="491" y="121" type="line"/>
      <point x="441" y="66"/>
      <point x="394" y="42"/>
      <point x="339" y="42" type="curve" smooth="yes"/>
      <point x="232" y="42"/>
      <point x="162" y="133"/>
      <point x="162" y="272" type="curve" smooth="yes"/>
      <point x="162" y="290"/>
      <point x="163" y="306"/>
      <point x="166" y="317" type="curve"/>
      <point x="495" y="317" type="line" smooth="yes"/>
      <point x="522" y="317"/>
      <point x="526" y="319"/>
      <point x="526" y="337" type="curve" smooth="yes"/>
      <point x="526" y="467"/>
      <point x="451" y="540"/>
      <point x="323" y="540" type="curve" smooth="yes"/>
      <point x="162" y="540"/>
      <point x="49" y="423"/>
      <point x="49" y="259" type="curve" smooth="yes"/>
      <point x="49" y="99"/>
      <point x="155" y="-10"/>
      <point x="311" y="-10" type="curve" smooth="yes"/>
      <point x="396" y="-10"/>
      <point x="464" y="23"/>
      <point x="522" y="93" type="curve"/>
    </contour>
    <contour>
      <point x="173" y="363" type="line"/>
      <point x="190" y="448"/>
      <point x="236" y="492"/>
      <point x="307" y="492" type="curve" smooth="yes"/>
      <point x="374" y="492"/>
      <point x="417" y="452"/>
      <point x="417" y="391" type="curve" smooth="yes"/>
      <point x="417" y="367"/>
      <point x="411" y="363"/>
      <point x="357" y="363" type="curve" smooth="yes"/>
    </contour>
  </outline>
</glyph>
<glyph name="g" format="1">
  <advance width="599"/>
  <unicode hex="0067"/>
  <outline>
    <contour>
      <point x="274" y="215" type="curve" smooth="yes"/>
      <point x="217" y="215"/>
      <point x="179" y="273"/>
      <point x="179" y="361" type="curve" smooth="yes"/>
      <point x="179" y="448"/>
      <point x="216" y="503"/>
      <point x="273" y="503" type="curve" smooth="yes"/>
      <point x="330" y="503"/>
      <point x="363" y="450"/>
      <point x="363" y="360" type="curve" smooth="yes"/>
      <point x="363" y="269"/>
      <point x="330" y="215"/>
    </contour>
    <contour>
      <point x="219" y="98" type="curve" smooth="yes"/>
      <point x="173" y="101"/>
      <point x="148" y="110"/>
      <point x="148" y="131" type="curve" smooth="yes"/>
      <point x="148" y="159"/>
      <point x="176" y="167"/>
      <point x="257" y="173" type="curve" smooth="yes"/>
      <point x="397" y="183"/>
      <point x="469" y="251"/>
      <point x="469" y="363" type="curve" smooth="yes"/>
      <point x="469" y="402"/>
      <point x="462" y="430"/>
      <point x="445" y="456" type="curve"/>
      <point x="461" y="467"/>
      <point x="478" y="473"/>
      <point x="494" y="473" type="curve" smooth="yes"/>
      <point x="527" y="473"/>
      <point x="532" y="442"/>
      <point x="569" y="442" type="curve" smooth="yes"/>
      <point x="592" y="442"/>
      <point x="609" y="457"/>
      <point x="609" y="479" type="curve" smooth="yes"/>
      <point x="609" y="516"/>
      <point x="578" y="540"/>
      <point x="530" y="540" type="curve" smooth="yes"/>
      <point x="500" y="540"/>
      <point x="466" y="524"/>
      <point x="421" y="487" type="curve"/>
      <point x="384" y="521"/>
      <point x="329" y="540"/>
      <point x="271" y="540" type="curve" smooth="yes"/>
      <point x="157" y="540"/>
      <point x="74" y="465"/>
      <point x="74" y="364" type="curve" smooth="yes"/>
      <point x="74" y="295"/>
      <point x="118" y="229"/>
      <point x="177" y="205" type="curve"/>
      <point x="177" y="201" type="line"/>
      <point x="118" y="192"/>
      <point x="75" y="152"/>
      <point x="75" y="105" type="curve" smooth="yes"/>
      <point x="75" y="50"/>
      <point x="115" y="17"/>
      <point x="189" y="9" type="curve" smooth="yes"/>
      <point x="225" y="5"/>
      <point x="305" y="-4"/>
      <point x="368" y="-13" type="curve" smooth="yes"/>
      <point x="417" y="-20"/>
      <point x="459" y="-58"/>
      <point x="459" y="-111" type="curve" smooth="yes"/>
      <point x="459" y="-181"/>
      <point x="402" y="-216"/>
      <point x="288" y="-216" type="curve" smooth="yes"/>
      <point x="182" y="-216"/>
      <point x="121" y="-182"/>
      <point x="121" y="-124" type="curve" smooth="yes"/>
      <point x="121" y="-84"/>
      <point x="146" y="-49"/>
      <point x="182" y="-41" type="curve"/>
      <point x="164" y="-27"/>
      <point x="144" y="-20"/>
      <point x="121" y="-20" type="curve" smooth="yes"/>
      <point x="72" y="-20"/>
      <point x="32" y="-64"/>
      <point x="32" y="-120" type="curve" smooth="yes"/>
      <point x="32" y="-203"/>
      <point x="135" y="-260"/>
      <point x="284" y="-260" type="curve" smooth="yes"/>
      <point x="451" y="-260"/>
      <point x="543" y="-199"/>
      <point x="543" y="-88" type="curve" smooth="yes"/>
      <point x="543" y="1"/>
      <point x="480" y="65"/>
      <point x="384" y="79" type="curve" smooth="yes"/>
      <point x="323" y="88"/>
      <point x="283" y="93"/>
    </contour>
  </outline>
</glyph>
<glyph name="l" format="1">
  <advance width="325"/>
  <unicode hex="006C"/>
  <outline>
    <contour>
      <point x="163" y="830" type="move" name="topcap"/>
    </contour>
    <contour>
      <point x="164" y="0" type="move" name="bottom"/>
    </contour>
    <contour>
      <point x="209" y="830" type="line"/>
      <point x="20" y="793" type="line"/>
      <point x="20" y="759" type="line"/>
      <point x="84" y="759"/>
      <point x="103" y="751"/>
      <point x="110" y="720" type="curve" smooth="yes"/>
      <point x="114" y="703"/>
      <point x="116" y="652"/>
      <point x="116" y="580" type="curve" smooth="yes"/>
      <point x="116" y="149" type="line" smooth="yes"/>
      <point x="116" y="57"/>
      <point x="101" y="39"/>
      <point x="22" y="35" type="curve"/>
      <point x="22" y="0" type="line"/>
      <point x="298" y="0" type="line"/>
      <point x="298" y="35" type="line"/>
      <point x="221" y="38"/>
      <point x="209" y="55"/>
      <point x="209" y="156" type="curve" smooth="yes"/>
    </contour>
  </outline>
</glyph>
<glyph name="m" format="1">
  <advance width="1073"/>
  <unicode hex="006D"/>
  <outline>
    <contour>
      <point x="221" y="287" type="line" smooth="yes"/>
      <point x="221" y="350"/>
      <point x="224" y="368"/>
      <point x="238" y="395" type="curve" smooth="yes"/>
      <point x="265" y="449"/>
      <point x="323" y="485"/>
      <point x="382" y="485" type="curve" smooth="yes"/>
      <point x="468" y="485"/>
      <point x="497" y="433"/>
      <point x="497" y="278" type="curve" smooth="yes"/>
      <point x="497" y="152" type="line" smooth="yes"/>
      <point x="497" y="51"/>
      <point x="489" y="40"/>
      <point x="413" y="35" type="curve"/>
      <point x="413" y="0" type="line"/>
      <point x="679" y="0" type="line"/>
      <point x="679" y="35" type="line"/>
      <point x="601" y="40"/>
      <point x="595" y="50"/>
      <point x="595" y="160" type="curve" smooth="yes"/>
      <point x="595" y="287" type="line" smooth="yes"/>
      <point x="595" y="350"/>
      <point x="598" y="368"/>
      <point x="612" y="395" type="curve" smooth="yes"/>
      <point x="641" y="449"/>
      <point x="697" y="485"/>
      <point x="755" y="485" type="curve" smooth="yes"/>
      <point x="841" y="485"/>
      <point x="872" y="431"/>
      <point x="872" y="278" type="curve" smooth="yes"/>
      <point x="872" y="152" type="line" smooth="yes"/>
      <point x="872" y="52"/>
      <point x="863" y="39"/>
      <point x="787" y="35" type="curve"/>
      <point x="787" y="0" type="line"/>
      <point x="1053" y="0" type="line"/>
      <point x="1053" y="35" type="line"/>
      <point x="977" y="40"/>
      <point x="970" y="50"/>
      <point x="970" y="160" type="curve" smooth="yes"/>
      <point x="970" y="319" type="line" smooth="yes"/>
      <point x="970" y="406"/>
      <point x="961" y="451"/>
      <point x="937" y="482" type="curve" smooth="yes"/>
      <point x="910" y="518"/>
      <point x="855" y="540"/>
      <point x="793" y="540" type="curve" smooth="yes"/>
      <point x="714" y="540"/>
      <point x="639" y="503"/>
      <point x="590" y="441" type="curve"/>
      <point x="586" y="441" type="line"/>
      <point x="564" y="504"/>
      <point x="504" y="540"/>
      <point x="420" y="540" type="curve" smooth="yes"/>
      <point x="340" y="540"/>
      <point x="276" y="508"/>
      <point x="216" y="440" type="curve"/>
      <point x="211" y="440" type="line"/>
      <point x="198" y="540" type="line"/>
      <point x="35" y="502" type="line"/>
      <point x="35" y="467" type="line"/>
      <point x="96" y="467"/>
      <point x="109" y="461"/>
      <point x="116" y="427" type="curve" smooth="yes"/>
      <point x="121" y="409"/>
      <point x="123" y="356"/>
      <point x="123" y="280" type="curve" smooth="yes"/>
      <point x="123" y="152" type="line" smooth="yes"/>
      <point x="123" y="51"/>
      <point x="114" y="40"/>
      <point x="37" y="35" type="curve"/>
      <point x="37" y="0" type="line"/>
      <point x="303" y="0" type="line"/>
      <point x="303" y="35" type="line"/>
      <point x="227" y="40"/>
      <point x="221" y="49"/>
      <point x="221" y="160" type="curve" smooth="yes"/>
    </contour>
  </outline>
</glyph>
<glyph name="n" format="1">
  <advance width="689"/>
  <unicode hex="006E"/>
  <outline>
    <contour>
      <point x="353" y="651" type="move" name="top"/>
    </contour>
    <contour>
      <point x="353" y="0" type="move" name="bottom"/>
    </contour>
    <contour>
      <point x="216" y="291" type="line" smooth="yes"/>
      <point x="216" y="354"/>
      <point x="220" y="371"/>
      <point x="234" y="398" type="curve" smooth="yes"/>
      <point x="262" y="452"/>
      <point x="316" y="486"/>
      <point x="375" y="486" type="curve" smooth="yes"/>
      <point x="458" y="486"/>
      <point x="489" y="433"/>
      <point x="489" y="282" type="curve" smooth="yes"/>
      <point x="489" y="150" type="line" smooth="yes"/>
      <point x="489" y="51"/>
      <point x="481" y="38"/>
      <point x="406" y="34" type="curve"/>
      <point x="406" y="0" type="line"/>
      <point x="665" y="0" type="line"/>
      <point x="665" y="34" type="line"/>
      <point x="592" y="39"/>
      <point x="584" y="49"/>
      <point x="584" y="157" type="curve" smooth="yes"/>
      <point x="584" y="324" type="line" smooth="yes"/>
      <point x="584" y="409"/>
      <point x="576" y="453"/>
      <point x="553" y="484" type="curve" smooth="yes"/>
      <point x="526" y="518"/>
      <point x="472" y="540"/>
      <point x="411" y="540" type="curve" smooth="yes"/>
      <point x="332" y="540"/>
      <point x="261" y="503"/>
      <point x="211" y="441" type="curve"/>
      <point x="207" y="441" type="line"/>
      <point x="195" y="540" type="line"/>
      <point x="35" y="502" type="line"/>
      <point x="35" y="470" type="line"/>
      <point x="93" y="470"/>
      <point x="107" y="464"/>
      <point x="115" y="428" type="curve" smooth="yes"/>
      <point x="119" y="411"/>
      <point x="121" y="361"/>
      <point x="121" y="283" type="curve" smooth="yes"/>
      <point x="121" y="150" type="line" smooth="yes"/>
      <point x="121" y="50"/>
      <point x="111" y="39"/>
      <point x="37" y="34" type="curve"/>
      <point x="37" y="0" type="line"/>
      <point x="299" y="0" type="line"/>
      <point x="299" y="34" type="line"/>
      <point x="222" y="39"/>
      <point x="216" y="49"/>
      <point x="216" y="157" type="curve" smooth="yes"/>
    </contour>
  </outline>
</glyph>
<glyph name="o" format="1">
  <advance width="654"/>
  <unicode hex="006F"/>
  <outline>
    <contour>
      <point x="325" y="651" type="move" name="top"/>
    </contour>
    <contour>
      <point x="325" y="0" type="move" name="bottom"/>
    </contour>
    <contour>
      <point x="325" y="540" type="curve" smooth="yes"/>
      <point x="175" y="540"/>
      <point x="48" y="427"/>
      <point x="48" y="269" type="curve" smooth="yes"/>
      <point x="48" y="106"/>
      <point x="175" y="-10"/>
      <point x="325" y="-10" type="curve" smooth="yes"/>
      <point x="477" y="-10"/>
      <point x="606" y="107"/>
      <point x="606" y="269" type="curve" smooth="yes"/>
      <point x="606" y="426"/>
      <point x="477" y="540"/>
    </contour>
    <contour>
      <point x="325" y="492" type="curve" smooth="yes"/>
      <point x="426" y="492"/>
      <point x="493" y="401"/>
      <point x="493" y="268" type="curve" smooth="yes"/>
      <point x="493" y="131"/>
      <point x="427" y="41"/>
      <point x="325" y="41" type="curve" smooth="yes"/>
      <point x="225" y="41"/>
      <point x="161" y="130"/>
      <point x="161" y="268" type="curve" smooth="yes"/>
      <point x="161" y="402"/>
      <point x="226" y="492"/>
    </contour>
  </outline>
</glyph>
<glyph name="w" format="1">
  <advance width="852"/>
  <unicode hex="0077"/>
  <outline>
    <contour>
      <point x="451" y="651" type="move" name="top"/>
    </contour>
    <contour>
      <point x="278" y="-10" type="line"/>
      <point x="241" y="-10" type="line"/>
      <point x="111" y="406" type="line" smooth="yes"/>
      <point x="88" y="480"/>
      <point x="70" y="495"/>
      <point x="12" y="495" type="curve"/>
      <point x="12" y="530" type="line"/>
      <point x="277" y="530" type="line"/>
      <point x="277" y="495" type="line"/>
      <point x="225" y="495"/>
      <point x="206" y="484"/>
      <point x="206" y="455" type="curve" smooth="yes"/>
      <point x="206" y="442"/>
      <point x="210" y="424"/>
      <point x="217" y="398" type="curve" smooth="yes"/>
      <point x="285" y="159" type="line"/>
      <point x="289" y="159" type="line"/>
      <point x="436" y="530" type="line"/>
      <point x="467" y="530" type="line"/>
      <point x="600" y="159" type="line"/>
      <point x="604" y="159" type="line"/>
      <point x="664" y="321" type="line" smooth="yes"/>
      <point x="697" y="410"/>
      <point x="705" y="436"/>
      <point x="705" y="459" type="curve" smooth="yes"/>
      <point x="705" y="488"/>
      <point x="692" y="495"/>
      <point x="638" y="495" type="curve"/>
      <point x="638" y="530" type="line"/>
      <point x="838" y="530" type="line"/>
      <point x="838" y="495" type="line"/>
      <point x="799" y="495"/>
      <point x="785" y="477"/>
      <point x="743" y="373" type="curve" smooth="yes"/>
      <point x="588" y="-10" type="line"/>
      <point x="551" y="-10" type="line"/>
      <point x="429" y="359" type="line"/>
      <point x="425" y="359" type="line"/>
    </contour>
  </outline>
</glyph>
<glyph name="z" format="1">
  <advance width="557"/>
  <unicode hex="007A"/>
  <outline>
    <contour>
      <point x="287" y="651" type="move" name="top"/>
    </contour>
    <contour>
      <point x="275" y="0" type="move" name="bottom"/>
    </contour>
    <contour>
      <point x="515" y="155" type="line"/>
      <point x="482" y="155" type="line"/>
      <point x="458" y="63"/>
      <point x="424" y="46"/>
      <point x="287" y="46" type="curve" smooth="yes"/>
      <point x="170" y="46" type="line"/>
      <point x="511" y="526" type="line"/>
      <point x="511" y="530" type="line"/>
      <point x="81" y="530" type="line"/>
      <point x="65" y="392" type="line"/>
      <point x="97" y="392" type="line"/>
      <point x="111" y="474"/>
      <point x="139" y="488"/>
      <point x="253" y="488" type="curve" smooth="yes"/>
      <point x="364" y="488" type="line"/>
      <point x="18" y="4" type="line"/>
      <point x="18" y="0" type="line"/>
      <point x="498" y="0" type="line"/>
    </contour>
  </outline>
</glyph>
<glyph name="braceleft" format="1">
  <advance width="335"/>
  <unicode hex="007B"/>
  <outline>
    <contour>
      <point x="208" y="198" type="line" smooth="yes"/>
      <point x="208" y="278"/>
      <point x="191" y="326"/>
      <point x="110" y="340" type="curve"/>
      <point x="110" y="345" type="line"/>
      <point x="195" y="363"/>
      <point x="208" y="419"/>
      <point x="208" y="501" type="curve" smooth="yes"/>
      <point x="208" y="680" type="line" smooth="yes"/>
      <point x="208" y="751"/>
      <point x="228" y="791"/>
      <point x="290" y="807" type="curve"/>
      <point x="290" y="830" type="line"/>
      <point x="148" y="830"/>
      <point x="118" y="786"/>
      <point x="118" y="659" type="curve" smooth="yes"/>
      <point x="118" y="484" type="line" smooth="yes"/>
      <point x="118" y="408"/>
      <point x="104" y="370"/>
      <point x="29" y="355" type="curve"/>
      <point x="29" y="330" type="line"/>
      <point x="97" y="324"/>
      <point x="118" y="260"/>
      <point x="118" y="200" type="curve" smooth="yes"/>
      <point x="118" y="4" type="line" smooth="yes"/>
      <point x="118" y="-117"/>
      <point x="160" y="-150"/>
      <point x="294" y="-150" type="curve"/>
      <point x="294" y="-128" type="line"/>
      <point x="226" y="-109"/>
      <point x="208" y="-72"/>
      <point x="208" y="0" type="curve" smooth="yes"/>
    </contour>
  </outline>
</glyph>
<glyph name="exclamdown" format="1">
  <advance width="308"/>
  <unicode hex="00A1"/>
  <outline>
    <contour>
      <point x="89" y="715" type="curve" smooth="yes"/>
      <point x="89" y="678"/>
      <point x="118" y="649"/>
      <point x="154" y="649" type="curve" smooth="yes"/>
      <point x="191" y="649"/>
      <point x="220" y="678"/>
      <point x="220" y="715" type="curve" smooth="yes"/>
      <point x="220" y="751"/>
      <point x="191" y="780"/>
      <point x="154" y="780" type="curve" smooth="yes"/>
      <point x="118" y="780"/>
      <point x="89" y="751"/>
    </contour>
    <contour>
      <point x="130" y="563" type="line"/>
      <point x="130" y="349"/>
      <point x="121" y="278"/>
      <point x="104" y="186" type="curve" smooth="yes"/>
      <point x="90" y="110"/>
      <point x="89" y="96"/>
      <point x="89" y="56" type="curve" smooth="yes"/>
      <point x="89" y="20"/>
      <point x="114" y="-10"/>
      <point x="154" y="-10" type="curve" smooth="yes"/>
      <point x="194" y="-10"/>
      <point x="219" y="20"/>
      <point x="219" y="56" type="curve" smooth="yes"/>
      <point x="219" y="93"/>
      <point x="219" y="110"/>
      <point x="204" y="190" type="curve" smooth="yes"/>
      <point x="188" y="278"/>
      <point x="178" y="350"/>
      <point x="178" y="563" type="curve"/>
    </contour>
  </outline>
</glyph>
<glyph name="cent" format="1">
  <advance width="555"/>
  <unicode hex="00A2"/>
  <outline>
    <contour>
      <point x="288" y="683" type="line"/>
      <point x="288" y="537" type="line"/>
      <point x="146" y="520"/>
      <point x="53" y="416"/>
      <point x="53" y="261" type="curve" smooth="yes"/>
      <point x="53" y="101"/>
      <point x="149" y="-7"/>
      <point x="288" y="-10" type="curve"/>
      <point x="288" y="-147" type="line"/>
      <point x="338" y="-147" type="line"/>
      <point x="338" y="-7" type="line"/>
      <point x="408" y="2"/>
      <point x="470" y="35"/>
      <point x="510" y="83" type="curve"/>
      <point x="480" y="112" type="line"/>
      <point x="433" y="66"/>
      <point x="388" y="45"/>
      <point x="338" y="42" type="curve"/>
      <point x="338" y="491" type="line"/>
      <point x="361" y="486"/>
      <point x="377" y="474"/>
      <point x="397" y="451" type="curve"/>
      <point x="422" y="417"/>
      <point x="434" y="410"/>
      <point x="458" y="410" type="curve" smooth="yes"/>
      <point x="488" y="410"/>
      <point x="507" y="426"/>
      <point x="507" y="452" type="curve" smooth="yes"/>
      <point x="507" y="503"/>
      <point x="437" y="538"/>
      <point x="338" y="540" type="curve"/>
      <point x="338" y="683" type="line"/>
    </contour>
    <contour>
      <point x="167" y="276" type="curve" smooth="yes"/>
      <point x="167" y="406"/>
      <point x="209" y="480"/>
      <point x="288" y="491" type="curve"/>
      <point x="288" y="46" type="line"/>
      <point x="209" y="65"/>
      <point x="167" y="144"/>
    </contour>
  </outline>
</glyph>
<glyph name="guillemotleft" format="1">
  <advance width="489"/>
  <unicode hex="00AB"/>
  <outline>
    <contour>
      <point x="219" y="104" type="line"/>
      <point x="238" y="124" type="line"/>
      <point x="140" y="262" type="line"/>
      <point x="239" y="400" type="line"/>
      <point x="219" y="421" type="line"/>
      <point x="49" y="262" type="line"/>
    </contour>
    <contour>
      <point x="390" y="104" type="line"/>
      <point x="409" y="124" type="line"/>
      <point x="311" y="262" type="line"/>
      <point x="410" y="400" type="line"/>
      <point x="390" y="421" type="line"/>
      <point x="220" y="262" type="line"/>
    </contour>
  </outline>
</glyph>
<glyph name="registered" format="1">
  <advance width="888"/>
  <unicode hex="00AE"/>
  <outline>
    <contour>
      <point x="831" y="386" type="curve" smooth="yes"/>
      <point x="831" y="605"/>
      <point x="657" y="780"/>
      <point x="441" y="780" type="curve" smooth="yes"/>
      <point x="228" y="780"/>
      <point x="57" y="602"/>
      <point x="57" y="385" type="curve" smooth="yes"/>
      <point x="57" y="168"/>
      <point x="229" y="-10"/>
      <point x="442" y="-10" type="curve" smooth="yes"/>
      <point x="657" y="-10"/>
      <point x="831" y="166"/>
    </contour>
    <contour>
      <point x="783" y="386" type="curve" smooth="yes"/>
      <point x="783" y="194"/>
      <point x="630" y="38"/>
      <point x="442" y="38" type="curve" smooth="yes"/>
      <point x="254" y="38"/>
      <point x="105" y="194"/>
      <point x="105" y="385" type="curve" smooth="yes"/>
      <point x="105" y="575"/>
      <point x="253" y="732"/>
      <point x="441" y="732" type="curve" smooth="yes"/>
      <point x="630" y="732"/>
      <point x="783" y="579"/>
    </contour>
    <contour>
      <point x="592" y="507" type="curve" smooth="yes"/>
      <point x="592" y="574"/>
      <point x="531" y="615"/>
      <point x="424" y="615" type="curve" smooth="yes"/>
      <point x="249" y="615" type="line"/>
      <point x="249" y="590" type="line"/>
      <point x="292" y="588"/>
      <point x="299" y="578"/>
      <point x="299" y="527" type="curve" smooth="yes"/>
      <point x="299" y="268" type="line" smooth="yes"/>
      <point x="299" y="217"/>
      <point x="291" y="207"/>
      <point x="243" y="205" type="curve"/>
      <point x="243" y="183" type="line"/>
      <point x="441" y="183" type="line"/>
      <point x="441" y="205" type="line"/>
      <point x="377" y="205"/>
      <point x="369" y="217"/>
      <point x="369" y="271" type="curve" smooth="yes"/>
      <point x="369" y="383" type="line"/>
      <point x="401" y="383"/>
      <point x="411" y="379"/>
      <point x="429" y="354" type="curve" smooth="yes"/>
      <point x="567" y="183" type="line"/>
      <point x="675" y="183" type="line"/>
      <point x="675" y="205" type="line"/>
      <point x="645" y="210"/>
      <point x="627" y="220"/>
      <point x="608" y="243" type="curve" smooth="yes"/>
      <point x="484" y="393" type="line"/>
      <point x="559" y="405"/>
      <point x="592" y="447"/>
    </contour>
    <contour>
      <point x="369" y="576" type="line" smooth="yes"/>
      <point x="369" y="581"/>
      <point x="371" y="585"/>
      <point x="378" y="585" type="curve" smooth="yes"/>
      <point x="424" y="585" type="line" smooth="yes"/>
      <point x="483" y="585"/>
      <point x="509" y="563"/>
      <point x="509" y="504" type="curve" smooth="yes"/>
      <point x="509" y="442"/>
      <point x="476" y="416"/>
      <point x="409" y="416" type="curve" smooth="yes"/>
      <point x="369" y="416" type="line"/>
    </contour>
  </outline>
</glyph>
<glyph name="threesuperior" format="1">
  <advance width="279"/>
  <unicode hex="00B3"/>
  <outline>
    <contour>
      <point x="186" y="554" type="curve" smooth="yes"/>
      <point x="186" y="597"/>
      <point x="167" y="621"/>
      <point x="135" y="621" type="curve"/>
      <point x="127" y="617"/>
      <point x="116" y="614"/>
      <point x="108" y="614" type="curve" smooth="yes"/>
      <point x="97" y="614"/>
      <point x="90" y="621"/>
      <point x="90" y="630" type="curve" smooth="yes"/>
      <point x="90" y="639"/>
      <point x="97" y="644"/>
      <point x="107" y="644" type="curve" smooth="yes"/>
      <point x="114" y="644"/>
      <point x="124" y="642"/>
      <point x="132" y="639" type="curve"/>
      <point x="160" y="639"/>
      <point x="179" y="666"/>
      <point x="179" y="707" type="curve" smooth="yes"/>
      <point x="179" y="742"/>
      <point x="164" y="758"/>
      <point x="132" y="758" type="curve" smooth="yes"/>
      <point x="107" y="758"/>
      <point x="92" y="746"/>
      <point x="92" y="727" type="curve" smooth="yes"/>
      <point x="92" y="712"/>
      <point x="103" y="701"/>
      <point x="120" y="701" type="curve"/>
      <point x="118" y="690"/>
      <point x="103" y="681"/>
      <point x="87" y="681" type="curve" smooth="yes"/>
      <point x="64" y="681"/>
      <point x="47" y="700"/>
      <point x="47" y="724" type="curve" smooth="yes"/>
      <point x="47" y="758"/>
      <point x="81" y="780"/>
      <point x="132" y="780" type="curve" smooth="yes"/>
      <point x="193" y="780"/>
      <point x="232" y="752"/>
      <point x="232" y="709" type="curve" smooth="yes"/>
      <point x="232" y="673"/>
      <point x="204" y="643"/>
      <point x="167" y="635" type="curve"/>
      <point x="167" y="631" type="line"/>
      <point x="210" y="621"/>
      <point x="242" y="591"/>
      <point x="242" y="551" type="curve" smooth="yes"/>
      <point x="242" y="501"/>
      <point x="195" y="464"/>
      <point x="131" y="464" type="curve" smooth="yes"/>
      <point x="75" y="464"/>
      <point x="35" y="494"/>
      <point x="35" y="535" type="curve" smooth="yes"/>
      <point x="35" y="564"/>
      <point x="55" y="586"/>
      <point x="81" y="586" type="curve" smooth="yes"/>
      <point x="98" y="586"/>
      <point x="114" y="576"/>
      <point x="117" y="563" type="curve"/>
      <point x="97" y="563"/>
      <point x="82" y="549"/>
      <point x="82" y="529" type="curve" smooth="yes"/>
      <point x="82" y="505"/>
      <point x="102" y="488"/>
      <point x="130" y="488" type="curve" smooth="yes"/>
      <point x="166" y="488"/>
      <point x="186" y="511"/>
    </contour>
  </outline>
</glyph>
<glyph name="acute" format="1">
  <advance width="275"/>
  <unicode hex="00B4"/>
  <outline>
    <contour>
      <point x="110" y="651" type="move" name="_top"/>
    </contour>
    <contour>
      <point x="67" y="651" type="line"/>
      <point x="204" y="716" type="line" smooth="yes"/>
      <point x="236" y="731"/>
      <point x="255" y="747"/>
      <point x="255" y="768" type="curve" smooth="yes"/>
      <point x="255" y="790"/>
      <point x="240" y="803"/>
      <point x="217" y="803" type="curve" smooth="yes"/>
      <point x="196" y="803"/>
      <point x="175" y="793"/>
      <point x="150" y="770" type="curve" smooth="yes"/>
      <point x="20" y="651" type="line"/>
    </contour>
  </outline>
</glyph>
<glyph name="threequarters" format="1">
  <advance width="671"/>
  <unicode hex="00BE"/>
  <outline>
    <contour>
      <point x="639" y="770" type="line"/>
      <point x="591" y="770" type="line"/>
      <point x="38" y="0" type="line"/>
      <point x="95" y="0" type="line"/>
    </contour>
    <component base="fourinferior" xOffset="340"/>
    <component base="threesuperior" xOffset="55"/>
  </outline>
</glyph>
<glyph name="multiply" format="1">
  <advance width="519"/>
  <unicode hex="00D7"/>
  <outline>
    <contour>
      <point x="105" y="147" type="line"/>
      <point x="260" y="302" type="line"/>
      <point x="414" y="148" type="line"/>
      <point x="449" y="183" type="line"/>
      <point x="295" y="337" type="line"/>
      <point x="450" y="492" type="line"/>
      <point x="413" y="529" type="line"/>
      <point x="258" y="374" type="line"/>
      <point x="104" y="528" type="line"/>
      <point x="69" y="493" type="line"/>
      <point x="223" y="339" type="line"/>
      <point x="68" y="184" type="line"/>
    </contour>
  </outline>
</glyph>
<glyph name="ae" format="1">
  <advance width="852"/>
  <unicode hex="00E6"/>
  <outline>
    <contour>
      <point x="431" y="651" type="move" name="top"/>
    </contour>
    <contour>
      <point x="771" y="121" type="line"/>
      <point x="722" y="67"/>
      <point x="674" y="42"/>
      <point x="622" y="42" type="curve" smooth="yes"/>
      <point x="523" y="42"/>
      <point x="462" y="131"/>
      <point x="462" y="273" type="curve" smooth="yes"/>
      <point x="462" y="293"/>
      <point x="463" y="308"/>
      <point x="466" y="317" type="curve"/>
      <point x="775" y="317" type="line" smooth="yes"/>
      <point x="799" y="317"/>
      <point x="806" y="324"/>
      <point x="806" y="339" type="curve" smooth="yes"/>
      <point x="806" y="464"/>
      <point x="731" y="540"/>
      <point x="606" y="540" type="curve" smooth="yes"/>
      <point x="535" y="540"/>
      <point x="474" y="515"/>
      <point x="430" y="471" type="curve"/>
      <point x="405" y="519"/>
      <point x="355" y="540"/>
      <point x="264" y="540" type="curve" smooth="yes"/>
      <point x="139" y="540"/>
      <point x="67" y="503"/>
      <point x="67" y="439" type="curve" smooth="yes"/>
      <point x="67" y="407"/>
      <point x="85" y="389"/>
      <point x="118" y="389" type="curve" smooth="yes"/>
      <point x="143" y="389"/>
      <point x="155" y="399"/>
      <point x="169" y="437" type="curve" smooth="yes"/>
      <point x="188" y="488"/>
      <point x="200" y="502"/>
      <point x="243" y="502" type="curve" smooth="yes"/>
      <point x="316" y="502"/>
      <point x="349" y="464"/>
      <point x="349" y="380" type="curve" smooth="yes"/>
      <point x="349" y="329" type="line"/>
      <point x="205" y="276" type="line" smooth="yes"/>
      <point x="95" y="235"/>
      <point x="43" y="182"/>
      <point x="43" y="109" type="curve" smooth="yes"/>
      <point x="43" y="36"/>
      <point x="96" y="-9"/>
      <point x="182" y="-9" type="curve" smooth="yes"/>
      <point x="271" y="-9"/>
      <point x="343" y="37"/>
      <point x="380" y="118" type="curve"/>
      <point x="420" y="38"/>
      <point x="496" y="-10"/>
      <point x="594" y="-10" type="curve" smooth="yes"/>
      <point x="675" y="-10"/>
      <point x="743" y="24"/>
      <point x="802" y="93" type="curve"/>
    </contour>
    <contour>
      <point x="349" y="197" type="line" smooth="yes"/>
      <point x="349" y="117"/>
      <point x="292" y="51"/>
      <point x="224" y="51" type="curve" smooth="yes"/>
      <point x="177" y="51"/>
      <point x="144" y="82"/>
      <point x="144" y="126" type="curve" smooth="yes"/>
      <point x="144" y="186"/>
      <point x="205" y="233"/>
      <point x="349" y="286" type="curve"/>
    </contour>
    <contour>
      <point x="473" y="363" type="line"/>
      <point x="489" y="451"/>
      <point x="526" y="492"/>
      <point x="590" y="492" type="curve" smooth="yes"/>
      <point x="654" y="492"/>
      <point x="697" y="451"/>
      <point x="697" y="390" type="curve" smooth="yes"/>
      <point x="697" y="366"/>
      <point x="690" y="363"/>
      <point x="637" y="363" type="curve" smooth="yes"/>
    </contour>
  </outline>
</glyph>
<glyph name="dcroat" format="1">
  <advance width="675"/>
  <unicode hex="0111"/>
  <outline>
    <contour>
      <point x="647" y="598" type="line"/>
      <point x="647" y="651" type="line"/>
      <point x="368" y="651" type="line"/>
      <point x="368" y="598" type="line"/>
    </contour>
    <component base="d"/>
  </outline>
</glyph>
<glyph name="gcommaaccent" format="1">
  <advance width="599"/>
  <unicode hex="0123"/>
  <outline>
    <contour>
      <point x="322" y="847" type="line"/>
      <point x="253" y="810"/>
      <point x="227" y="767"/>
      <point x="227" y="724" type="curve" smooth="yes"/>
      <point x="227" y="680"/>
      <point x="250" y="651"/>
      <point x="290" y="651" type="curve" smooth="yes"/>
      <point x="325" y="651"/>
      <point x="349" y="673"/>
      <point x="349" y="704" type="curve" smooth="yes"/>
      <point x="349" y="732"/>
      <point x="331" y="751"/>
      <point x="305" y="751" type="curve" smooth="yes"/>
      <point x="294" y="751"/>
      <point x="285" y="748"/>
      <point x="279" y="743" type="curve"/>
      <point x="279" y="772"/>
      <point x="299" y="796"/>
      <point x="344" y="821" type="curve"/>
    </contour>
    <component base="g"/>
  </outline>
</glyph>
<glyph name="dotlessi" format="1">
  <advance width="341"/>
  <unicode hex="0131"/>
  <outline>
    <contour>
      <point x="180" y="651" type="move" name="top"/>
    </contour>
    <contour>
      <point x="228" y="540" type="line"/>
      <point x="32" y="502" type="line"/>
      <point x="32" y="465" type="line"/>
      <point x="98" y="465"/>
      <point x="117" y="456"/>
      <point x="123" y="424" type="curve" smooth="yes"/>
      <point x="128" y="406"/>
      <point x="130" y="355"/>
      <point x="130" y="278" type="curve" smooth="yes"/>
      <point x="130" y="154" type="line" smooth="yes"/>
      <point x="130" y="60"/>
      <point x="115" y="41"/>
      <point x="34" y="37" type="curve"/>
      <point x="34" y="0" type="line"/>
      <point x="321" y="0" type="line"/>
      <point x="321" y="37" type="line"/>
      <point x="242" y="40"/>
      <point x="228" y="58"/>
      <point x="228" y="162" type="curve" smooth="yes"/>
    </contour>
  </outline>
</glyph>
<glyph name="kgreenlandic" format="1">
  <advance width="633"/>
  <unicode hex="0138"/>
  <outline>
    <contour>
      <point x="365" y="0" type="line"/>
      <point x="628" y="0" type="line"/>
      <point x="628" y="35" type="line"/>
      <point x="584" y="35"/>
      <point x="561" y="46"/>
      <point x="522" y="90" type="curve" smooth="yes"/>
      <point x="324" y="314" type="line"/>
      <point x="468" y="442" type="line" smooth="yes"/>
      <point x="518" y="486"/>
      <point x="537" y="495"/>
      <point x="586" y="495" type="curve"/>
      <point x="586" y="530" type="line"/>
      <point x="326" y="530" type="line"/>
      <point x="326" y="495" type="line"/>
      <point x="384" y="495"/>
      <point x="404" y="490"/>
      <point x="404" y="475" type="curve" smooth="yes"/>
      <point x="404" y="460"/>
      <point x="383" y="435"/>
      <point x="318" y="372" type="curve" smooth="yes"/>
      <point x="225" y="281" type="line"/>
      <point x="225" y="550" type="line"/>
      <point x="32" y="512" type="line"/>
      <point x="32" y="478" type="line"/>
      <point x="120" y="478"/>
      <point x="130" y="466"/>
      <point x="130" y="360" type="curve" smooth="yes"/>
      <point x="130" y="152" type="line" smooth="yes"/>
      <point x="130" y="56"/>
      <point x="113" y="35"/>
      <point x="34" y="35" type="curve"/>
      <point x="34" y="0" type="line"/>
      <point x="318" y="0" type="line"/>
      <point x="318" y="35" type="line"/>
      <point x="240" y="35"/>
      <point x="225" y="55"/>
      <point x="225" y="159" type="curve" smooth="yes"/>
      <point x="225" y="218" type="line"/>
      <point x="262" y="253" type="line"/>
      <point x="368" y="125" type="line" smooth="yes"/>
      <point x="407" y="78"/>
      <point x="417" y="62"/>
      <point x="417" y="50" type="curve" smooth="yes"/>
      <point x="417" y="38"/>
      <point x="407" y="35"/>
      <point x="365" y="35" type="curve"/>
    </contour>
  </outline>
</glyph>
<glyph name="Lslash" format="1">
  <advance width="728"/>
  <unicode hex="0141"/>
  <outline>
    <contour>
      <point x="66" y="267" type="line"/>
      <point x="66" y="327" type="line"/>
      <point x="390" y="530" type="line"/>
      <point x="390" y="470" type="line"/>
    </contour>
    <component base="L" xOffset="1"/>
  </outline>
</glyph>
<glyph name="Tbar" format="1">
  <advance width="805"/>
  <unicode hex="0166"/>
  <outline>
    <contour>
      <point x="666" y="417" type="line"/>
      <point x="666" y="467" type="line"/>
      <point x="139" y="467" type="line"/>
      <point x="139" y="417" type="line"/>
    </contour>
    <component base="T" xOffset="1"/>
  </outline>
</glyph>
<glyph name="Schwa" format="1">
  <advance width="803"/>
  <unicode hex="018F"/>
  <outline>
    <contour>
      <point x="99" y="606" type="line"/>
      <point x="175" y="695"/>
      <point x="234" y="724"/>
      <point x="327" y="724" type="curve" smooth="yes"/>
      <point x="503" y="724"/>
      <point x="615" y="585"/>
      <point x="615" y="375" type="curve" smooth="yes"/>
      <point x="615" y="350"/>
      <point x="614" y="327"/>
      <point x="610" y="311" type="curve"/>
      <point x="103" y="311" type="line" smooth="yes"/>
      <point x="64" y="311"/>
      <point x="58" y="308"/>
      <point x="58" y="282" type="curve" smooth="yes"/>
      <point x="58" y="95"/>
      <point x="166" y="-10"/>
      <point x="350" y="-10" type="curve" smooth="yes"/>
      <point x="581" y="-10"/>
      <point x="744" y="158"/>
      <point x="744" y="394" type="curve" smooth="yes"/>
      <point x="744" y="624"/>
      <point x="592" y="781"/>
      <point x="367" y="781" type="curve" smooth="yes"/>
      <point x="245" y="781"/>
      <point x="142" y="738"/>
      <point x="59" y="637" type="curve"/>
    </contour>
    <contour>
      <point x="600" y="245" type="line"/>
      <point x="572" y="114"/>
      <point x="494" y="48"/>
      <point x="373" y="48" type="curve" smooth="yes"/>
      <point x="266" y="48"/>
      <point x="200" y="110"/>
      <point x="200" y="204" type="curve" smooth="yes"/>
      <point x="200" y="239"/>
      <point x="208" y="245"/>
      <point x="286" y="245" type="curve"/>
    </contour>
  </outline>
</glyph>
<glyph name="oslashacute" format="1">
  <advance width="651"/>
  <unicode hex="01FF"/>
  <outline>
    <contour>
      <point x="324" y="540" type="curve" smooth="yes"/>
      <point x="174" y="540"/>
      <point x="47" y="427"/>
      <point x="47" y="269" type="curve" smooth="yes"/>
      <point x="47" y="183"/>
      <point x="82" y="111"/>
      <point x="136" y="61" type="curve"/>
      <point x="40" y="-61" type="line"/>
      <point x="108" y="-61" type="line"/>
      <point x="179" y="29" type="line"/>
      <point x="222" y="4"/>
      <point x="271" y="-10"/>
      <point x="324" y="-10" type="curve" smooth="yes"/>
      <point x="476" y="-10"/>
      <point x="605" y="107"/>
      <point x="605" y="269" type="curve" smooth="yes"/>
      <point x="605" y="347"/>
      <point x="573" y="414"/>
      <point x="522" y="462" type="curve"/>
      <point x="625" y="592" type="line"/>
      <point x="556" y="592" type="line"/>
      <point x="479" y="495" type="line"/>
      <point x="434" y="524"/>
      <point x="381" y="540"/>
    </contour>
    <contour>
      <point x="324" y="492" type="curve" smooth="yes"/>
      <point x="369" y="492"/>
      <point x="408" y="473"/>
      <point x="436" y="441" type="curve"/>
      <point x="189" y="128" type="line"/>
      <point x="170" y="165"/>
      <point x="160" y="212"/>
      <point x="160" y="268" type="curve" smooth="yes"/>
      <point x="160" y="402"/>
      <point x="225" y="492"/>
    </contour>
    <contour>
      <point x="492" y="268" type="curve" smooth="yes"/>
      <point x="492" y="131"/>
      <point x="426" y="41"/>
      <point x="324" y="41" type="curve" smooth="yes"/>
      <point x="283" y="41"/>
      <point x="248" y="55"/>
      <point x="221" y="82" type="curve"/>
      <point x="467" y="393" type="line"/>
      <point x="483" y="358"/>
      <point x="492" y="316"/>
    </contour>
    <component base="acute" xOffset="253"/>
  </outline>
</glyph>
<glyph name="apostrophe" format="1">
  <advance width="194"/>
  <unicode hex="02BC"/>
  <outline>
    <contour>
      <point x="112" y="611" type="line"/>
      <point x="122" y="667"/>
      <point x="144" y="757"/>
      <point x="144" y="780" type="curve" smooth="yes"/>
      <point x="144" y="809"/>
      <point x="124" y="830"/>
      <point x="97" y="830" type="curve" smooth="yes"/>
      <point x="70" y="830"/>
      <point x="50" y="809"/>
      <point x="50" y="781" type="curve" smooth="yes"/>
      <point x="50" y="758"/>
      <point x="73" y="667"/>
      <point x="83" y="611" type="curve"/>
    </contour>
  </outline>
</glyph>
<glyph name="hungarumlaut" format="1">
  <advance width="473"/>
  <unicode hex="02DD"/>
  <outline>
    <contour>
      <point x="205" y="651" type="move" name="_top"/>
    </contour>
    <contour>
      <point x="67" y="651" type="line"/>
      <point x="204" y="716" type="line" smooth="yes"/>
      <point x="236" y="731"/>
      <point x="255" y="747"/>
      <point x="255" y="768" type="curve" smooth="yes"/>
      <point x="255" y="790"/>
      <point x="240" y="803"/>
      <point x="217" y="803" type="curve" smooth="yes"/>
      <point x="196" y="803"/>
      <point x="175" y="793"/>
      <point x="150" y="770" type="curve" smooth="yes"/>
      <point x="20" y="651" type="line"/>
    </contour>
    <contour>
      <point x="265" y="651" type="line"/>
      <point x="402" y="716" type="line" smooth="yes"/>
      <point x="434" y="731"/>
      <point x="453" y="747"/>
      <point x="453" y="768" type="curve" smooth="yes"/>
      <point x="453" y="790"/>
      <point x="438" y="803"/>
      <point x="415" y="803" type="curve" smooth="yes"/>
      <point x="394" y="803"/>
      <point x="373" y="793"/>
      <point x="348" y="770" type="curve" smooth="yes"/>
      <point x="218" y="651" type="line"/>
    </contour>
  </outline>
</glyph>
<glyph name="quoteleft" format="1">
  <advance width="257"/>
  <unicode hex="2018"/>
  <outline>
    <contour>
      <point x="175" y="830" type="line"/>
      <point x="84" y="763"/>
      <point x="56" y="721"/>
      <point x="56" y="653" type="curve" smooth="yes"/>
      <point x="56" y="592"/>
      <point x="81" y="559"/>
      <point x="127" y="559" type="curve" smooth="yes"/>
      <point x="168" y="559"/>
      <point x="195" y="584"/>
      <point x="195" y="620" type="curve" smooth="yes"/>
      <point x="195" y="652"/>
      <point x="174" y="675"/>
      <point x="143" y="675" type="curve" smooth="yes"/>
      <point x="132" y="675"/>
      <point x="121" y="672"/>
      <point x="113" y="667" type="curve"/>
      <point x="113" y="718"/>
      <point x="137" y="757"/>
      <point x="198" y="803" type="curve"/>
    </contour>
  </outline>
</glyph>
<glyph name="quotedblleft" format="1">
  <advance width="449"/>
  <unicode hex="201C"/>
  <outline>
    <contour>
      <point x="367" y="830" type="line"/>
      <point x="276" y="763"/>
      <point x="248" y="721"/>
      <point x="248" y="653" type="curve" smooth="yes"/>
      <point x="248" y="592"/>
      <point x="273" y="559"/>
      <point x="319" y="559" type="curve" smooth="yes"/>
      <point x="360" y="559"/>
      <point x="387" y="584"/>
      <point x="387" y="620" type="curve" smooth="yes"/>
      <point x="387" y="652"/>
      <point x="366" y="675"/>
      <point x="335" y="675" type="curve" smooth="yes"/>
      <point x="324" y="675"/>
      <point x="313" y="672"/>
      <point x="305" y="667" type="curve"/>
      <point x="305" y="718"/>
      <point x="329" y="757"/>
      <point x="390" y="803" type="curve"/>
    </contour>
    <contour>
      <point x="175" y="830" type="line"/>
      <point x="84" y="763"/>
      <point x="56" y="721"/>
      <point x="56" y="653" type="curve" smooth="yes"/>
      <point x="56" y="592"/>
      <point x="81" y="559"/>
      <point x="127" y="559" type="curve" smooth="yes"/>
      <point x="168" y="559"/>
      <point x="195" y="584"/>
      <point x="195" y="620" type="curve" smooth="yes"/>
      <point x="195" y="652"/>
      <point x="174" y="675"/>
      <point x="143" y="675" type="curve" smooth="yes"/>
      <point x="132" y="675"/>
      <point x="121" y="672"/>
      <point x="113" y="667" type="curve"/>
      <point x="113" y="718"/>
      <point x="137" y="757"/>
      <point x="198" y="803" type="curve"/>
    </contour>
  </outline>
</glyph>
<glyph name="quotedblright" format="1">
  <advance width="446"/>
  <unicode hex="201D"/>
  <outline>
    <contour>
      <point x="87" y="559" type="line"/>
      <point x="178" y="626"/>
      <point x="206" y="668"/>
      <point x="206" y="736" type="curve" smooth="yes"/>
      <point x="206" y="797"/>
      <point x="181" y="830"/>
      <point x="135" y="830" type="curve" smooth="yes"/>
      <point x="94" y="830"/>
      <point x="67" y="805"/>
      <point x="67" y="769" type="curve" smooth="yes"/>
      <point x="67" y="737"/>
      <point x="88" y="714"/>
      <point x="119" y="714" type="curve" smooth="yes"/>
      <point x="130" y="714"/>
      <point x="141" y="717"/>
      <point x="149" y="722" type="curve"/>
      <point x="149" y="671"/>
      <point x="125" y="632"/>
      <point x="64" y="586" type="curve"/>
    </contour>
    <contour>
      <point x="279" y="559" type="line"/>
      <point x="370" y="626"/>
      <point x="398" y="668"/>
      <point x="398" y="736" type="curve" smooth="yes"/>
      <point x="398" y="797"/>
      <point x="373" y="830"/>
      <point x="327" y="830" type="curve" smooth="yes"/>
      <point x="286" y="830"/>
      <point x="259" y="805"/>
      <point x="259" y="769" type="curve" smooth="yes"/>
      <point x="259" y="737"/>
      <point x="280" y="714"/>
      <point x="311" y="714" type="curve" smooth="yes"/>
      <point x="322" y="714"/>
      <point x="333" y="717"/>
      <point x="341" y="722" type="curve"/>
      <point x="341" y="671"/>
      <point x="317" y="632"/>
      <point x="256" y="586" type="curve"/>
    </contour>
  </outline>
</glyph>
<glyph name="bullet" format="1">
  <advance width="476"/>
  <unicode hex="2022"/>
  <outline>
    <contour>
      <point x="235" y="216" type="curve" smooth="yes"/>
      <point x="322" y="216"/>
      <point x="392" y="284"/>
      <point x="392" y="369" type="curve" smooth="yes"/>
      <point x="392" y="454"/>
      <point x="322" y="521"/>
      <point x="240" y="521" type="curve" smooth="yes"/>
      <point x="155" y="521"/>
      <point x="84" y="454"/>
      <point x="84" y="369" type="curve" smooth="yes"/>
      <point x="84" y="284"/>
      <point x="155" y="216"/>
    </contour>
  </outline>
</glyph>
<glyph name="ellipsis" format="1">
  <advance width="697"/>
  <unicode hex="2026"/>
  <outline>
    <contour>
      <point x="67" y="55" type="curve" smooth="yes"/>
      <point x="67" y="19"/>
      <point x="96" y="-10"/>
      <point x="132" y="-10" type="curve" smooth="yes"/>
      <point x="169" y="-10"/>
      <point x="198" y="19"/>
      <point x="198" y="55" type="curve" smooth="yes"/>
      <point x="198" y="92"/>
      <point x="169" y="121"/>
      <point x="132" y="121" type="curve" smooth="yes"/>
      <point x="96" y="121"/>
      <point x="67" y="92"/>
    </contour>
    <contour>
      <point x="283" y="55" type="curve" smooth="yes"/>
      <point x="283" y="19"/>
      <point x="312" y="-10"/>
      <point x="348" y="-10" type="curve" smooth="yes"/>
      <point x="385" y="-10"/>
      <point x="414" y="19"/>
      <point x="414" y="55" type="curve" smooth="yes"/>
      <point x="414" y="92"/>
      <point x="385" y="121"/>
      <point x="348" y="121" type="curve" smooth="yes"/>
      <point x="312" y="121"/>
      <point x="283" y="92"/>
    </contour>
    <contour>
      <point x="499" y="55" type="curve" smooth="yes"/>
      <point x="499" y="19"/>
      <point x="528" y="-10"/>
      <point x="564" y="-10" type="curve" smooth="yes"/>
      <point x="601" y="-10"/>
      <point x="630" y="19"/>
      <point x="630" y="55" type="curve" smooth="yes"/>
      <point x="630" y="92"/>
      <point x="601" y="121"/>
      <point x="564" y="121" type="curve" smooth="yes"/>
      <point x="528" y="121"/>
      <point x="499" y="92"/>
    </contour>
  </outline>
</glyph>
<glyph name="guilsinglright" format="1">
  <advance width="318"/>
  <unicode hex="203A"/>
  <outline>
    <contour>
      <point x="269" y="262" type="line"/>
      <point x="99" y="421" type="line"/>
      <point x="79" y="400" type="line"/>
      <point x="178" y="262" type="line"/>
      <point x="80" y="124" type="line"/>
      <point x="99" y="104" type="line"/>
    </contour>
  </outline>
</glyph>
<glyph name="fraction" format="1">
  <advance width="40"/>
  <unicode hex="2044"/>
  <outline>
    <contour>
      <point x="321" y="770" type="line"/>
      <point x="273" y="770" type="line"/>
      <point x="-280" y="0" type="line"/>
      <point x="-223" y="0" type="line"/>
    </contour>
  </outline>
</glyph>
<glyph name="foursuperior" format="1">
  <advance width="274"/>
  <unicode hex="2074"/>
  <outline>
    <contour>
      <point x="20" y="565" type="line"/>
      <point x="161" y="780" type="line"/>
      <point x="183" y="780" type="line"/>
      <point x="183" y="564" type="line"/>
      <point x="217" y="565"/>
      <point x="220" y="569"/>
      <point x="220" y="600" type="curve"/>
      <point x="239" y="600" type="line"/>
      <point x="239" y="506" type="line"/>
      <point x="220" y="506" type="line"/>
      <point x="220" y="535"/>
      <point x="216" y="540"/>
      <point x="183" y="541" type="curve"/>
      <point x="183" y="533" type="line" smooth="yes"/>
      <point x="183" y="492"/>
      <point x="188" y="484"/>
      <point x="215" y="483" type="curve"/>
      <point x="215" y="468" type="line"/>
      <point x="92" y="468" type="line"/>
      <point x="92" y="483" type="line"/>
      <point x="128" y="485"/>
      <point x="134" y="492"/>
      <point x="134" y="530" type="curve" smooth="yes"/>
      <point x="134" y="540" type="line"/>
      <point x="20" y="540" type="line"/>
    </contour>
    <contour>
      <point x="134" y="695" type="line"/>
      <point x="130" y="695" type="line"/>
      <point x="45" y="565" type="line"/>
      <point x="134" y="565" type="line"/>
    </contour>
  </outline>
</glyph>
<glyph name="threeinferior" format="1">
  <advance width="280"/>
  <unicode hex="2083"/>
  <outline>
    <contour>
      <point x="186" y="80" type="curve" smooth="yes"/>
      <point x="186" y="123"/>
      <point x="167" y="147"/>
      <point x="135" y="147" type="curve"/>
      <point x="127" y="143"/>
      <point x="116" y="140"/>
      <point x="108" y="140" type="curve" smooth="yes"/>
      <point x="97" y="140"/>
      <point x="90" y="147"/>
      <point x="90" y="156" type="curve" smooth="yes"/>
      <point x="90" y="165"/>
      <point x="97" y="170"/>
      <point x="107" y="170" type="curve" smooth="yes"/>
      <point x="114" y="170"/>
      <point x="124" y="168"/>
      <point x="132" y="165" type="curve"/>
      <point x="160" y="165"/>
      <point x="179" y="192"/>
      <point x="179" y="233" type="curve" smooth="yes"/>
      <point x="179" y="268"/>
      <point x="164" y="284"/>
      <point x="132" y="284" type="curve" smooth="yes"/>
      <point x="107" y="284"/>
      <point x="92" y="272"/>
      <point x="92" y="253" type="curve" smooth="yes"/>
      <point x="92" y="238"/>
      <point x="103" y="227"/>
      <point x="120" y="227" type="curve"/>
      <point x="118" y="216"/>
      <point x="103" y="207"/>
      <point x="87" y="207" type="curve" smooth="yes"/>
      <point x="64" y="207"/>
      <point x="47" y="226"/>
      <point x="47" y="250" type="curve" smooth="yes"/>
      <point x="47" y="284"/>
      <point x="81" y="306"/>
      <point x="132" y="306" type="curve" smooth="yes"/>
      <point x="193" y="306"/>
      <point x="232" y="278"/>
      <point x="232" y="235" type="curve" smooth="yes"/>
      <point x="232" y="199"/>
      <point x="204" y="169"/>
      <point x="167" y="161" type="curve"/>
      <point x="167" y="157" type="line"/>
      <point x="210" y="147"/>
      <point x="242" y="117"/>
      <point x="242" y="77" type="curve" smooth="yes"/>
      <point x="242" y="27"/>
      <point x="195" y="-10"/>
      <point x="131" y="-10" type="curve" smooth="yes"/>
      <point x="75" y="-10"/>
      <point x="35" y="20"/>
      <point x="35" y="61" type="curve" smooth="yes"/>
      <point x="35" y="90"/>
      <point x="55" y="112"/>
      <point x="81" y="112" type="curve" smooth="yes"/>
      <point x="98" y="112"/>
      <point x="114" y="102"/>
      <point x="117" y="89" type="curve"/>
      <point x="97" y="89"/>
      <point x="82" y="75"/>
      <point x="82" y="55" type="curve" smooth="yes"/>
      <point x="82" y="31"/>
      <point x="102" y="14"/>
      <point x="130" y="14" type="curve" smooth="yes"/>
      <point x="166" y="14"/>
      <point x="186" y="37"/>
    </contour>
  </outline>
</glyph>
<glyph name="servicemark" format="1">
  <advance width="797"/>
  <unicode hex="2120"/>
  <outline>
    <contour>
      <point x="518" y="544" type="line"/>
      <point x="616" y="770" type="line"/>
      <point x="716" y="770" type="line"/>
      <point x="716" y="750" type="line"/>
      <point x="682" y="750"/>
      <point x="676" y="740"/>
      <point x="676" y="689" type="curve" smooth="yes"/>
      <point x="676" y="543" type="line" smooth="yes"/>
      <point x="676" y="491"/>
      <point x="682" y="482"/>
      <point x="720" y="482" type="curve"/>
      <point x="720" y="462" type="line"/>
      <point x="585" y="462" type="line"/>
      <point x="585" y="482" type="line"/>
      <point x="623" y="482"/>
      <point x="629" y="492"/>
      <point x="629" y="540" type="curve" smooth="yes"/>
      <point x="629" y="720" type="line"/>
      <point x="625" y="720" type="line"/>
      <point x="508" y="458" type="line"/>
      <point x="500" y="458" type="line"/>
      <point x="387" y="720" type="line"/>
      <point x="383" y="720" type="line"/>
      <point x="383" y="543" type="line" smooth="yes"/>
      <point x="383" y="491"/>
      <point x="389" y="482"/>
      <point x="427" y="482" type="curve"/>
      <point x="427" y="462" type="line"/>
      <point x="310" y="462" type="line"/>
      <point x="310" y="482" type="line"/>
      <point x="348" y="482"/>
      <point x="354" y="490"/>
      <point x="354" y="540" type="curve" smooth="yes"/>
      <point x="354" y="692" type="line" smooth="yes"/>
      <point x="354" y="738"/>
      <point x="346" y="750"/>
      <point x="314" y="750" type="curve"/>
      <point x="314" y="770" type="line"/>
      <point x="422" y="770" type="line"/>
      <point x="514" y="544" type="line"/>
    </contour>
    <contour>
      <point x="82" y="472" type="line"/>
      <point x="92" y="472" type="line"/>
      <point x="103" y="492" type="line"/>
      <point x="126" y="472"/>
      <point x="149" y="464"/>
      <point x="181" y="464" type="curve" smooth="yes"/>
      <point x="247" y="464"/>
      <point x="290" y="500"/>
      <point x="290" y="555" type="curve" smooth="yes"/>
      <point x="290" y="598"/>
      <point x="269" y="619"/>
      <point x="188" y="657" type="curve" smooth="yes"/>
      <point x="146" y="676"/>
      <point x="132" y="690"/>
      <point x="132" y="715" type="curve" smooth="yes"/>
      <point x="132" y="740"/>
      <point x="150" y="755"/>
      <point x="180" y="755" type="curve" smooth="yes"/>
      <point x="213" y="755"/>
      <point x="236" y="735"/>
      <point x="250" y="695" type="curve"/>
      <point x="267" y="695" type="line"/>
      <point x="262" y="774" type="line"/>
      <point x="253" y="774" type="line"/>
      <point x="242" y="756" type="line"/>
      <point x="220" y="773"/>
      <point x="201" y="780"/>
      <point x="179" y="780" type="curve" smooth="yes"/>
      <point x="126" y="780"/>
      <point x="89" y="744"/>
      <point x="89" y="694" type="curve" smooth="yes"/>
      <point x="89" y="652"/>
      <point x="110" y="629"/>
      <point x="176" y="601" type="curve" smooth="yes"/>
      <point x="228" y="579"/>
      <point x="241" y="563"/>
      <point x="241" y="537" type="curve" smooth="yes"/>
      <point x="241" y="506"/>
      <point x="219" y="489"/>
      <point x="181" y="489" type="curve" smooth="yes"/>
      <point x="135" y="489"/>
      <point x="100" y="517"/>
      <point x="93" y="562" type="curve"/>
      <point x="75" y="562" type="line"/>
    </contour>
  </outline>
</glyph>
<glyph name="fiveeighths" format="1">
  <advance width="672"/>
  <unicode hex="215D"/>
  <outline>
    <contour>
      <point x="637" y="770" type="line"/>
      <point x="589" y="770" type="line"/>
      <point x="36" y="0" type="line"/>
      <point x="93" y="0" type="line"/>
    </contour>
    <component base="eightinferior" xOffset="341"/>
    <component base="fivesuperior" xOffset="55"/>
  </outline>
</glyph>
<glyph name="minus" format="1">
  <advance width="634"/>
  <unicode hex="2212"/>
  <outline>
    <contour>
      <point x="551" y="363" type="line"/>
      <point x="83" y="363" type="line"/>
      <point x="83" y="313" type="line"/>
      <point x="551" y="313" type="line"/>
    </contour>
  </outline>
</glyph>
<glyph name="uni2215" format="1">
  <advance width="562"/>
  <unicode hex="2215"/>
  <outline>
    <contour>
      <point x="585" y="770" type="line"/>
      <point x="531" y="770" type="line"/>
      <point x="-22" y="0" type="line"/>
      <point x="41" y="0" type="line"/>
    </contour>
  </outline>
</glyph>
<glyph name="f_f" format="1">
  <advance width="729"/>
  <unicode hex="FB00"/>
  <outline>
    <contour>
      <point x="226" y="467" type="line"/>
      <point x="454" y="467" type="line"/>
      <point x="454" y="153" type="line" smooth="yes"/>
      <point x="454" y="52"/>
      <point x="445" y="39"/>
      <point x="378" y="35" type="curve"/>
      <point x="378" y="0" type="line"/>
      <point x="642" y="0" type="line"/>
      <point x="642" y="35" type="line"/>
      <point x="566" y="37"/>
      <point x="548" y="62"/>
      <point x="548" y="161" type="curve" smooth="yes"/>
      <point x="548" y="467" type="line"/>
      <point x="709" y="467" type="line"/>
      <point x="709" y="514" type="line"/>
      <point x="548" y="514" type="line"/>
      <point x="548" y="592" type="line" smooth="yes"/>
      <point x="548" y="659"/>
      <point x="552" y="695"/>
      <point x="564" y="721" type="curve" smooth="yes"/>
      <point x="581" y="761"/>
      <point x="610" y="782"/>
      <point x="650" y="782" type="curve" smooth="yes"/>
      <point x="675" y="782"/>
      <point x="689" y="776"/>
      <point x="722" y="748" type="curve" smooth="yes"/>
      <point x="751" y="724"/>
      <point x="767" y="715"/>
      <point x="783" y="715" type="curve" smooth="yes"/>
      <point x="808" y="715"/>
      <point x="827" y="735"/>
      <point x="827" y="762" type="curve" smooth="yes"/>
      <point x="827" y="802"/>
      <point x="769" y="830"/>
      <point x="687" y="830" type="curve" smooth="yes"/>
      <point x="595" y="830"/>
      <point x="526" y="791"/>
      <point x="488" y="747" type="curve"/>
      <point x="465" y="768"/>
      <point x="421" y="790"/>
      <point x="365" y="790" type="curve" smooth="yes"/>
      <point x="216" y="790"/>
      <point x="134" y="699"/>
      <point x="132" y="546" type="curve" smooth="yes"/>
      <point x="132" y="514" type="line"/>
      <point x="19" y="514" type="line"/>
      <point x="19" y="467" type="line"/>
      <point x="132" y="467" type="line"/>
      <point x="132" y="153" type="line" smooth="yes"/>
      <point x="132" y="52"/>
      <point x="123" y="39"/>
      <point x="56" y="35" type="curve"/>
      <point x="56" y="0" type="line"/>
      <point x="320" y="0" type="line"/>
      <point x="320" y="35" type="line"/>
      <point x="244" y="37"/>
      <point x="226" y="62"/>
      <point x="226" y="161" type="curve" smooth="yes"/>
    </contour>
    <contour>
      <point x="226" y="514" type="line"/>
      <point x="226" y="552" type="line" smooth="yes"/>
      <point x="226" y="619"/>
      <point x="230" y="655"/>
      <point x="242" y="681" type="curve" smooth="yes"/>
      <point x="259" y="721"/>
      <point x="288" y="742"/>
      <point x="328" y="742" type="curve" smooth="yes"/>
      <point x="353" y="742"/>
      <point x="371" y="737"/>
      <point x="404" y="709" type="curve" smooth="yes"/>
      <point x="419" y="696"/>
      <point x="437" y="681"/>
      <point x="454" y="670" type="curve"/>
      <point x="454" y="514" type="line"/>
    </contour>
  </outline>
</glyph>
<glyph name="f_l" format="1">
  <advance width="678"/>
  <unicode hex="FB02"/>
  <outline>
    <contour>
      <point x="562" y="830" type="line"/>
      <point x="476" y="807" type="line"/>
      <point x="451" y="821"/>
      <point x="413" y="830"/>
      <point x="367" y="830" type="curve" smooth="yes"/>
      <point x="220" y="830"/>
      <point x="135" y="739"/>
      <point x="135" y="586" type="curve" smooth="yes"/>
      <point x="135" y="514" type="line"/>
      <point x="22" y="514" type="line"/>
      <point x="22" y="467" type="line"/>
      <point x="135" y="467" type="line"/>
      <point x="135" y="153" type="line" smooth="yes"/>
      <point x="135" y="52"/>
      <point x="123" y="35"/>
      <point x="49" y="35" type="curve"/>
      <point x="49" y="0" type="line"/>
      <point x="323" y="0" type="line"/>
      <point x="323" y="35" type="line"/>
      <point x="249" y="35"/>
      <point x="229" y="62"/>
      <point x="229" y="161" type="curve" smooth="yes"/>
      <point x="229" y="467" type="line"/>
      <point x="390" y="467" type="line"/>
      <point x="390" y="514" type="line"/>
      <point x="229" y="514" type="line"/>
      <point x="229" y="592" type="line" smooth="yes"/>
      <point x="229" y="748"/>
      <point x="264" y="782"/>
      <point x="337" y="782" type="curve" smooth="yes"/>
      <point x="373" y="782"/>
      <point x="400" y="771"/>
      <point x="447" y="730" type="curve" smooth="yes"/>
      <point x="469" y="711" type="line"/>
      <point x="469" y="149" type="line" smooth="yes"/>
      <point x="469" y="57"/>
      <point x="456" y="35"/>
      <point x="385" y="35" type="curve"/>
      <point x="385" y="0" type="line"/>
      <point x="651" y="0" type="line"/>
      <point x="651" y="35" type="line"/>
      <point x="575" y="35"/>
      <point x="562" y="55"/>
      <point x="562" y="156" type="curve" smooth="yes"/>
    </contour>
  </outline>
</glyph>
<glyph name="s_t" format="1">
  <advance width="849"/>
  <unicode hex="FB06"/>
  <outline>
    <contour>
      <point x="683" y="514" type="line"/>
      <point x="683" y="609" type="line" smooth="yes"/>
      <point x="683" y="739"/>
      <point x="622" y="804"/>
      <point x="500" y="804" type="curve" smooth="yes"/>
      <point x="373" y="804"/>
      <point x="300" y="735"/>
      <point x="300" y="616" type="curve" smooth="yes"/>
      <point x="300" y="588"/>
      <point x="304" y="563"/>
      <point x="313" y="539" type="curve"/>
      <point x="292" y="544"/>
      <point x="268" y="546"/>
      <point x="243" y="546" type="curve" smooth="yes"/>
      <point x="132" y="546"/>
      <point x="67" y="475"/>
      <point x="67" y="390" type="curve" smooth="yes"/>
      <point x="67" y="326"/>
      <point x="95" y="287"/>
      <point x="202" y="222" type="curve" smooth="yes"/>
      <point x="306" y="159"/>
      <point x="318" y="144"/>
      <point x="318" y="107" type="curve" smooth="yes"/>
      <point x="318" y="60"/>
      <point x="284" y="31"/>
      <point x="231" y="31" type="curve" smooth="yes"/>
      <point x="161" y="31"/>
      <point x="115" y="77"/>
      <point x="89" y="172" type="curve"/>
      <point x="64" y="172" type="line"/>
      <point x="64" y="0" type="line"/>
      <point x="86" y="0" type="line"/>
      <point x="106" y="35" type="line"/>
      <point x="142" y="6"/>
      <point x="188" y="-10"/>
      <point x="240" y="-10" type="curve" smooth="yes"/>
      <point x="339" y="-10"/>
      <point x="407" y="49"/>
      <point x="407" y="139" type="curve" smooth="yes"/>
      <point x="407" y="207"/>
      <point x="375" y="247"/>
      <point x="247" y="324" type="curve" smooth="yes"/>
      <point x="168" y="372"/>
      <point x="149" y="394"/>
      <point x="149" y="437" type="curve" smooth="yes"/>
      <point x="149" y="473"/>
      <point x="179" y="499"/>
      <point x="223" y="499" type="curve" smooth="yes"/>
      <point x="262" y="499"/>
      <point x="283" y="487"/>
      <point x="309" y="452" type="curve" smooth="yes"/>
      <point x="334" y="419"/>
      <point x="346" y="411"/>
      <point x="370" y="411" type="curve" smooth="yes"/>
      <point x="400" y="411"/>
      <point x="419" y="427"/>
      <point x="419" y="453" type="curve" smooth="yes"/>
      <point x="419" y="471"/>
      <point x="411" y="487"/>
      <point x="397" y="500" type="curve" smooth="yes"/>
      <point x="362" y="535"/>
      <point x="352" y="567"/>
      <point x="352" y="613" type="curve" smooth="yes"/>
      <point x="352" y="699"/>
      <point x="409" y="754"/>
      <point x="497" y="754" type="curve" smooth="yes"/>
      <point x="579" y="754"/>
      <point x="631" y="705"/>
      <point x="631" y="627" type="curve" smooth="yes"/>
      <point x="631" y="553"/>
      <point x="584" y="504"/>
      <point x="511" y="504" type="curve"/>
      <point x="511" y="467" type="line"/>
      <point x="571" y="467" type="line"/>
      <point x="571" y="112" type="line" smooth="yes"/>
      <point x="571" y="33"/>
      <point x="619" y="-10"/>
      <point x="705" y="-10" type="curve" smooth="yes"/>
      <point x="773" y="-10"/>
      <point x="821" y="17"/>
      <point x="840" y="66" type="curve"/>
      <point x="815" y="85" type="line"/>
      <point x="793" y="52"/>
      <point x="771" y="39"/>
      <point x="737" y="39" type="curve" smooth="yes"/>
      <point x="685" y="39"/>
      <point x="669" y="69"/>
      <point x="669" y="163" type="curve" smooth="yes"/>
      <point x="669" y="467" type="line"/>
      <point x="803" y="467" type="line"/>
      <point x="803" y="514" type="line"/>
    </contour>
  </outline>
</glyph>
<glyph name="acute.cap" format="1">
  <advance width="295"/>
  <outline>
    <contour>
      <point x="120" y="830" type="move" name="_topcap"/>
    </contour>
    <contour>
      <point x="80" y="850" type="line"/>
      <point x="200" y="878" type="line" smooth="yes"/>
      <point x="245" y="888"/>
      <point x="275" y="904"/>
      <point x="275" y="925" type="curve" smooth="yes"/>
      <point x="275" y="947"/>
      <point x="260" y="960"/>
      <point x="237" y="960" type="curve" smooth="yes"/>
      <point x="210" y="960"/>
      <point x="187" y="949"/>
      <point x="150" y="927" type="curve" smooth="yes"/>
      <point x="20" y="850" type="line"/>
    </contour>
  </outline>
</glyph>
<glyph name="caron.alt" format="1">
  <advance width="162"/>
  <outline>
    <contour>
      <point x="79" y="651" type="move" name="_top"/>
    </contour>
    <contour>
      <point x="47" y="584" type="line"/>
      <point x="116" y="621"/>
      <point x="142" y="658"/>
      <point x="142" y="701" type="curve" smooth="yes"/>
      <point x="142" y="751"/>
      <point x="119" y="780"/>
      <point x="79" y="780" type="curve" smooth="yes"/>
      <point x="44" y="780"/>
      <point x="20" y="758"/>
      <point x="20" y="727" type="curve" smooth="yes"/>
      <point x="20" y="699"/>
      <point x="38" y="680"/>
      <point x="64" y="680" type="curve" smooth="yes"/>
      <point x="75" y="680"/>
      <point x="84" y="683"/>
      <point x="90" y="688" type="curve"/>
      <point x="90" y="659"/>
      <point x="70" y="635"/>
      <point x="25" y="610" type="curve"/>
    </contour>
  </outline>
</glyph>
<glyph name="dieresis.cap" format="1">
  <advance width="323"/>
  <outline>
    <contour>
      <point x="161" y="830" type="move" name="_topcap"/>
    </contour>
    <contour>
      <point x="20" y="910" type="curve" smooth="yes"/>
      <point x="20" y="881"/>
      <point x="42" y="859"/>
      <point x="70" y="859" type="curve" smooth="yes"/>
      <point x="99" y="859"/>
      <point x="121" y="881"/>
      <point x="121" y="910" type="curve" smooth="yes"/>
      <point x="121" y="938"/>
      <point x="99" y="960"/>
      <point x="70" y="960" type="curve" smooth="yes"/>
      <point x="42" y="960"/>
      <point x="20" y="938"/>
    </contour>
    <contour>
      <point x="202" y="910" type="curve" smooth="yes"/>
      <point x="202" y="881"/>
      <point x="224" y="859"/>
      <point x="253" y="859" type="curve" smooth="yes"/>
      <point x="281" y="859"/>
      <point x="303" y="881"/>
      <point x="303" y="910" type="curve" smooth="yes"/>
      <point x="303" y="938"/>
      <point x="281" y="960"/>
      <point x="253" y="960" type="curve" smooth="yes"/>
      <point x="224" y="960"/>
      <point x="202" y="938"/>
    </contour>
  </outline>
</glyph>
<glyph name="f_f_h" format="1">
  <advance width="1366"/>
  <outline>
    <contour>
      <point x="886" y="287" type="line" smooth="yes"/>
      <point x="886" y="348"/>
      <point x="889" y="367"/>
      <point x="903" y="395" type="curve" smooth="yes"/>
      <point x="932" y="451"/>
      <point x="987" y="485"/>
      <point x="1049" y="485" type="curve" smooth="yes"/>
      <point x="1131" y="485"/>
      <point x="1162" y="428"/>
      <point x="1162" y="278" type="curve" smooth="yes"/>
      <point x="1162" y="152" type="line" smooth="yes"/>
      <point x="1162" y="51"/>
      <point x="1154" y="39"/>
      <point x="1078" y="35" type="curve"/>
      <point x="1078" y="0" type="line"/>
      <point x="1343" y="0" type="line"/>
      <point x="1343" y="35" type="line"/>
      <point x="1267" y="40"/>
      <point x="1261" y="50"/>
      <point x="1261" y="159" type="curve" smooth="yes"/>
      <point x="1261" y="319" type="line" smooth="yes"/>
      <point x="1261" y="404"/>
      <point x="1251" y="451"/>
      <point x="1228" y="481" type="curve" smooth="yes"/>
      <point x="1200" y="517"/>
      <point x="1145" y="540"/>
      <point x="1084" y="540" type="curve" smooth="yes"/>
      <point x="1011" y="540"/>
      <point x="929" y="502"/>
      <point x="888" y="449" type="curve"/>
      <point x="884" y="449" type="line"/>
      <point x="884" y="830" type="line"/>
      <point x="878" y="826" type="line"/>
      <point x="881" y="830" type="line"/>
      <point x="795" y="807" type="line"/>
      <point x="770" y="821"/>
      <point x="732" y="830"/>
      <point x="686" y="830" type="curve" smooth="yes"/>
      <point x="596" y="830"/>
      <point x="536" y="798"/>
      <point x="494" y="739" type="curve"/>
      <point x="467" y="770"/>
      <point x="421" y="790"/>
      <point x="365" y="790" type="curve" smooth="yes"/>
      <point x="216" y="790"/>
      <point x="134" y="699"/>
      <point x="132" y="546" type="curve" smooth="yes"/>
      <point x="132" y="514" type="line"/>
      <point x="19" y="514" type="line"/>
      <point x="19" y="467" type="line"/>
      <point x="132" y="467" type="line"/>
      <point x="132" y="153" type="line" smooth="yes"/>
      <point x="132" y="52"/>
      <point x="123" y="39"/>
      <point x="56" y="35" type="curve"/>
      <point x="56" y="0" type="line"/>
      <point x="320" y="0" type="line"/>
      <point x="320" y="35" type="line"/>
      <point x="244" y="37"/>
      <point x="226" y="62"/>
      <point x="226" y="161" type="curve" smooth="yes"/>
      <point x="226" y="467" type="line"/>
      <point x="454" y="467" type="line"/>
      <point x="454" y="153" type="line" smooth="yes"/>
      <point x="454" y="52"/>
      <point x="444" y="39"/>
      <point x="368" y="35" type="curve"/>
      <point x="368" y="0" type="line"/>
      <point x="642" y="0" type="line"/>
      <point x="642" y="35" type="line"/>
      <point x="566" y="37"/>
      <point x="548" y="62"/>
      <point x="548" y="161" type="curve" smooth="yes"/>
      <point x="548" y="467" type="line"/>
      <point x="709" y="467" type="line"/>
      <point x="709" y="514" type="line"/>
      <point x="548" y="514" type="line"/>
      <point x="548" y="592" type="line" smooth="yes"/>
      <point x="548" y="668"/>
      <point x="553" y="695"/>
      <point x="564" y="721" type="curve" smooth="yes"/>
      <point x="581" y="761"/>
      <point x="607" y="782"/>
      <point x="656" y="782" type="curve" smooth="yes"/>
      <point x="692" y="782"/>
      <point x="719" y="771"/>
      <point x="766" y="730" type="curve" smooth="yes"/>
      <point x="788" y="711" type="line"/>
      <point x="788" y="152" type="line" smooth="yes"/>
      <point x="788" y="51"/>
      <point x="779" y="40"/>
      <point x="702" y="35" type="curve"/>
      <point x="702" y="0" type="line"/>
      <point x="968" y="0" type="line"/>
      <point x="968" y="35" type="line"/>
      <point x="892" y="40"/>
      <point x="886" y="49"/>
      <point x="886" y="159" type="curve" smooth="yes"/>
    </contour>
    <contour>
      <point x="226" y="514" type="line"/>
      <point x="226" y="552" type="line" smooth="yes"/>
      <point x="226" y="619"/>
      <point x="230" y="655"/>
      <point x="242" y="681" type="curve" smooth="yes"/>
      <point x="259" y="721"/>
      <point x="288" y="742"/>
      <point x="328" y="742" type="curve" smooth="yes"/>
      <point x="353" y="742"/>
      <point x="371" y="737"/>
      <point x="404" y="709" type="curve" smooth="yes"/>
      <point x="419" y="696"/>
      <point x="437" y="681"/>
      <point x="454" y="670" type="curve"/>
      <point x="454" y="514" type="line"/>
    </contour>
  </outline>
</glyph>
<glyph name="f_k" format="1">
  <advance width="971"/>
  <outline>
    <contour>
      <point x="703" y="0" type="line"/>
      <point x="966" y="0" type="line"/>
      <point x="966" y="35" type="line"/>
      <point x="920" y="35"/>
      <point x="898" y="46"/>
      <point x="860" y="90" type="curve" smooth="yes"/>
      <point x="662" y="314" type="line"/>
      <point x="806" y="442" type="line" smooth="yes"/>
      <point x="855" y="485"/>
      <point x="874" y="495"/>
      <point x="924" y="495" type="curve"/>
      <point x="924" y="530" type="line"/>
      <point x="664" y="530" type="line"/>
      <point x="664" y="495" type="line"/>
      <point x="725" y="495"/>
      <point x="743" y="489"/>
      <point x="743" y="473" type="curve" smooth="yes"/>
      <point x="743" y="461"/>
      <point x="733" y="447"/>
      <point x="656" y="372" type="curve" smooth="yes"/>
      <point x="563" y="281" type="line"/>
      <point x="563" y="830" type="line"/>
      <point x="476" y="807" type="line"/>
      <point x="451" y="821"/>
      <point x="413" y="830"/>
      <point x="367" y="830" type="curve" smooth="yes"/>
      <point x="220" y="830"/>
      <point x="135" y="739"/>
      <point x="135" y="586" type="curve" smooth="yes"/>
      <point x="135" y="514" type="line"/>
      <point x="22" y="514" type="line"/>
      <point x="22" y="467" type="line"/>
      <point x="135" y="467" type="line"/>
      <point x="135" y="153" type="line" smooth="yes"/>
      <point x="135" y="52"/>
      <point x="125" y="35"/>
      <point x="49" y="35" type="curve"/>
      <point x="49" y="0" type="line"/>
      <point x="323" y="0" type="line"/>
      <point x="323" y="35" type="line"/>
      <point x="248" y="35"/>
      <point x="229" y="62"/>
      <point x="229" y="161" type="curve" smooth="yes"/>
      <point x="229" y="467" type="line"/>
      <point x="390" y="467" type="line"/>
      <point x="390" y="514" type="line"/>
      <point x="229" y="514" type="line"/>
      <point x="229" y="592" type="line" smooth="yes"/>
      <point x="229" y="747"/>
      <point x="264" y="782"/>
      <point x="335" y="782" type="curve" smooth="yes"/>
      <point x="378" y="782"/>
      <point x="401" y="769"/>
      <point x="447" y="730" type="curve" smooth="yes"/>
      <point x="468" y="712" type="line"/>
      <point x="468" y="152" type="line" smooth="yes"/>
      <point x="468" y="57"/>
      <point x="452" y="35"/>
      <point x="372" y="35" type="curve"/>
      <point x="372" y="0" type="line"/>
      <point x="656" y="0" type="line"/>
      <point x="656" y="35" type="line"/>
      <point x="576" y="35"/>
      <point x="563" y="56"/>
      <point x="563" y="159" type="curve" smooth="yes"/>
      <point x="563" y="218" type="line"/>
      <point x="600" y="253" type="line"/>
      <point x="706" y="125" type="line" smooth="yes"/>
      <point x="752" y="70"/>
      <point x="759" y="57"/>
      <point x="759" y="48" type="curve" smooth="yes"/>
      <point x="759" y="38"/>
      <point x="750" y="35"/>
      <point x="703" y="35" type="curve"/>
    </contour>
  </outline>
</glyph>
<glyph name="f_t" format="1">
  <advance width="762"/>
  <outline>
    <contour>
      <point x="484" y="467" type="line"/>
      <point x="484" y="112" type="line" smooth="yes"/>
      <point x="484" y="34"/>
      <point x="531" y="-10"/>
      <point x="619" y="-10" type="curve" smooth="yes"/>
      <point x="687" y="-10"/>
      <point x="734" y="17"/>
      <point x="753" y="66" type="curve"/>
      <point x="728" y="85" type="line"/>
      <point x="706" y="52"/>
      <point x="684" y="39"/>
      <point x="651" y="39" type="curve" smooth="yes"/>
      <point x="598" y="39"/>
      <point x="582" y="69"/>
      <point x="582" y="163" type="curve" smooth="yes"/>
      <point x="582" y="467" type="line"/>
      <point x="716" y="467" type="line"/>
      <point x="716" y="514" type="line"/>
      <point x="582" y="514" type="line"/>
      <point x="582" y="640" type="line"/>
      <point x="553" y="640" type="line"/>
      <point x="530" y="576"/>
      <point x="461" y="514"/>
      <point x="404" y="514" type="curve" smooth="yes"/>
      <point x="229" y="514" type="line"/>
      <point x="229" y="592" type="line" smooth="yes"/>
      <point x="229" y="743"/>
      <point x="266" y="782"/>
      <point x="331" y="782" type="curve" smooth="yes"/>
      <point x="356" y="782"/>
      <point x="370" y="776"/>
      <point x="403" y="748" type="curve" smooth="yes"/>
      <point x="431" y="724"/>
      <point x="448" y="715"/>
      <point x="464" y="715" type="curve" smooth="yes"/>
      <point x="489" y="715"/>
      <point x="508" y="735"/>
      <point x="508" y="762" type="curve" smooth="yes"/>
      <point x="508" y="802"/>
      <point x="450" y="830"/>
      <point x="368" y="830" type="curve" smooth="yes"/>
      <point x="220" y="830"/>
      <point x="135" y="739"/>
      <point x="135" y="586" type="curve" smooth="yes"/>
      <point x="135" y="514" type="line"/>
      <point x="22" y="514" type="line"/>
      <point x="22" y="467" type="line"/>
      <point x="135" y="467" type="line"/>
      <point x="135" y="153" type="line" smooth="yes"/>
      <point x="135" y="52"/>
      <point x="126" y="35"/>
      <point x="49" y="35" type="curve"/>
      <point x="49" y="0" type="line"/>
      <point x="333" y="0" type="line"/>
      <point x="333" y="35" type="line"/>
      <point x="249" y="35"/>
      <point x="229" y="62"/>
      <point x="229" y="161" type="curve" smooth="yes"/>
      <point x="229" y="467" type="line"/>
    </contour>
  </outline>
</glyph>
<glyph name="grave.cap" format="1">
  <advance width="295"/>
  <outline>
    <contour>
      <point x="169" y="830" type="move" name="_topcap"/>
    </contour>
    <contour>
      <point x="275" y="850" type="line"/>
      <point x="145" y="927" type="line" smooth="yes"/>
      <point x="108" y="949"/>
      <point x="85" y="960"/>
      <point x="58" y="960" type="curve" smooth="yes"/>
      <point x="35" y="960"/>
      <point x="20" y="947"/>
      <point x="20" y="925" type="curve" smooth="yes"/>
      <point x="20" y="904"/>
      <point x="50" y="888"/>
      <point x="95" y="878" type="curve" smooth="yes"/>
      <point x="215" y="850" type="line"/>
    </contour>
  </outline>
</glyph>
<glyph name="hungarumlaut.cap" format="1">
  <advance width="473"/>
  <outline>
    <contour>
      <point x="205" y="830" type="move" name="_topcap"/>
    </contour>
    <contour>
      <point x="80" y="850" type="line"/>
      <point x="190" y="878" type="line" smooth="yes"/>
      <point x="235" y="889"/>
      <point x="265" y="904"/>
      <point x="265" y="925" type="curve" smooth="yes"/>
      <point x="265" y="947"/>
      <point x="250" y="960"/>
      <point x="227" y="960" type="curve" smooth="yes"/>
      <point x="200" y="960"/>
      <point x="176" y="950"/>
      <point x="140" y="927" type="curve" smooth="yes"/>
      <point x="20" y="850" type="line"/>
    </contour>
    <contour>
      <point x="267" y="850" type="line"/>
      <point x="377" y="878" type="line" smooth="yes"/>
      <point x="422" y="889"/>
      <point x="452" y="904"/>
      <point x="452" y="925" type="curve" smooth="yes"/>
      <point x="452" y="947"/>
      <point x="437" y="960"/>
      <point x="414" y="960" type="curve" smooth="yes"/>
      <point x="387" y="960"/>
      <point x="363" y="950"/>
      <point x="327" y="927" type="curve" smooth="yes"/>
      <point x="207" y="850" type="line"/>
    </contour>
  </outline>
</glyph>
<glyph name="tilde.cap" format="1">
  <advance width="381"/>
  <outline>
    <contour>
      <point x="191" y="830" type="move" name="_topcap"/>
    </contour>
    <contour>
      <point x="54" y="846" type="line"/>
      <point x="63" y="876"/>
      <point x="74" y="886"/>
      <point x="99" y="886" type="curve" smooth="yes"/>
      <point x="153" y="886"/>
      <point x="208" y="838"/>
      <point x="261" y="838" type="curve" smooth="yes"/>
      <point x="311" y="838"/>
      <point x="354" y="889"/>
      <point x="361" y="956" type="curve"/>
      <point x="328" y="956" type="line"/>
      <point x="318" y="925"/>
      <point x="306" y="914"/>
      <point x="281" y="914" type="curve" smooth="yes"/>
      <point x="230" y="914"/>
      <point x="179" y="960"/>
      <point x="126" y="960" type="curve" smooth="yes"/>
      <point x="74" y="960"/>
      <point x="31" y="914"/>
      <point x="20" y="846" type="curve"/>
    </contour>
  </outline>
</glyph>
